BhuTuka-LightExtended.ufo
<glyph name="numbersign" format="1">
  <advance width="791"/>
  <unicode hex="0023"/>
  <outline>
    <contour>
      <point x="644" y="490" type="line"/>
      <point x="619" y="490" type="line"/>
      <point x="441" y="-1" type="line"/>
      <point x="465" y="-1" type="line"/>
    </contour>
    <contour>
      <point x="350" y="490" type="line"/>
      <point x="325" y="490" type="line"/>
      <point x="145" y="-1" type="line"/>
      <point x="169" y="-1" type="line"/>
    </contour>
    <contour>
      <point x="69" y="332" type="line"/>
      <point x="771" y="332" type="line"/>
      <point x="771" y="355" type="line"/>
      <point x="69" y="355" type="line"/>
    </contour>
    <contour>
      <point x="20" y="151" type="line"/>
      <point x="721" y="151" type="line"/>
      <point x="721" y="174" type="line"/>
      <point x="20" y="174" type="line"/>
    </contour>
  </outline>
</glyph>
<glyph name="ampersand" format="1">
  <advance width="736"/>
  <unicode hex="0026"/>
  <outline>
    <contour>
      <point x="491" y="-12"/>
      <point x="642" y="104"/>
      <point x="642" y="208" type="curve" smooth="yes"/>
      <point x="642" y="271"/>
      <point x="610" y="304"/>
      <point x="585" y="325" type="curve"/>
      <point x="568" y="308" type="line"/>
      <point x="593" y="284"/>
      <point x="617" y="261"/>
      <point x="617" y="209" type="curve" smooth="yes"/>
      <point x="617" y="118"/>
      <point x="482" y="9"/>
      <point x="264" y="9" type="curve" smooth="yes"/>
      <point x="114" y="9"/>
      <point x="65" y="65"/>
      <point x="65" y="123" type="curve" smooth="yes"/>
      <point x="65" y="202"/>
      <point x="150" y="229"/>
      <point x="287" y="266" type="curve" smooth="yes"/>
      <point x="435" y="306"/>
      <point x="502" y="356"/>
      <point x="502" y="430" type="curve" smooth="yes"/>
      <point x="502" y="480"/>
      <point x="461" y="528"/>
      <point x="390" y="528" type="curve" smooth="yes"/>
      <point x="307" y="528"/>
      <point x="233" y="461"/>
      <point x="233" y="360" type="curve" smooth="yes"/>
      <point x="233" y="138"/>
      <point x="442" y="-11"/>
      <point x="594" y="-11" type="curve" smooth="yes"/>
      <point x="643" y="-11"/>
      <point x="676" y="-2"/>
      <point x="716" y="20" type="curve"/>
      <point x="707" y="40" type="line"/>
      <point x="672" y="20"/>
      <point x="641" y="12"/>
      <point x="594" y="12" type="curve" smooth="yes"/>
      <point x="451" y="12"/>
      <point x="258" y="154"/>
      <point x="258" y="360" type="curve" smooth="yes"/>
      <point x="258" y="461"/>
      <point x="331" y="506"/>
      <point x="390" y="506" type="curve" smooth="yes"/>
      <point x="443" y="506"/>
      <point x="477" y="471"/>
      <point x="477" y="425" type="curve" smooth="yes"/>
      <point x="477" y="373"/>
      <point x="417" y="328"/>
      <point x="284" y="289" type="curve" smooth="yes"/>
      <point x="131" y="244"/>
      <point x="40" y="215"/>
      <point x="40" y="123" type="curve" smooth="yes"/>
      <point x="40" y="45"/>
      <point x="109" y="-15"/>
      <point x="264" y="-13" type="curve" smooth="yes"/>
    </contour>
  </outline>
</glyph>
<glyph name="asterisk" format="1">
  <advance width="443"/>
  <unicode hex="002A"/>
  <outline>
    <contour>
      <point x="332" y="310"/>
      <point x="340" y="314"/>
      <point x="345" y="319" type="curve" smooth="yes"/>
      <point x="350" y="323"/>
      <point x="352" y="329"/>
      <point x="352" y="335" type="curve" smooth="yes"/>
      <point x="352" y="361"/>
      <point x="302" y="376"/>
      <point x="271" y="407" type="curve" smooth="yes"/>
      <point x="252" y="425" type="line"/>
      <point x="242" y="418" type="line"/>
      <point x="258" y="397" type="line" smooth="yes"/>
      <point x="290" y="355"/>
      <point x="287" y="310"/>
      <point x="323" y="310" type="curve" smooth="yes"/>
    </contour>
    <contour>
      <point x="156" y="310"/>
      <point x="154" y="355"/>
      <point x="185" y="397" type="curve" smooth="yes"/>
      <point x="201" y="418" type="line"/>
      <point x="192" y="425" type="line"/>
      <point x="172" y="407" type="line" smooth="yes"/>
      <point x="141" y="376"/>
      <point x="91" y="361"/>
      <point x="91" y="335" type="curve" smooth="yes"/>
      <point x="91" y="328"/>
      <point x="94" y="322"/>
      <point x="100" y="318" type="curve" smooth="yes"/>
      <point x="106" y="313"/>
      <point x="112" y="310"/>
      <point x="120" y="310" type="curve" smooth="yes"/>
    </contour>
    <contour>
      <point x="185" y="466" type="line"/>
      <point x="160" y="475" type="line" smooth="yes"/>
      <point x="122" y="489"/>
      <point x="91" y="522"/>
      <point x="65" y="522" type="curve" smooth="yes"/>
      <point x="49" y="522"/>
      <point x="36" y="510"/>
      <point x="36" y="495" type="curve" smooth="yes"/>
      <point x="36" y="475"/>
      <point x="53" y="470"/>
      <point x="77" y="468" type="curve" smooth="yes"/>
      <point x="99" y="466"/>
      <point x="126" y="467"/>
      <point x="154" y="461" type="curve" smooth="yes"/>
      <point x="182" y="455" type="line"/>
    </contour>
    <contour>
      <point x="229" y="491" type="line"/>
      <point x="231" y="515" type="line" smooth="yes"/>
      <point x="234" y="544"/>
      <point x="252" y="584"/>
      <point x="252" y="599" type="curve" smooth="yes"/>
      <point x="252" y="611"/>
      <point x="242" y="624"/>
      <point x="223" y="625" type="curve"/>
      <point x="201" y="624"/>
      <point x="194" y="611"/>
      <point x="194" y="599" type="curve" smooth="yes"/>
      <point x="194" y="584"/>
      <point x="210" y="545"/>
      <point x="212" y="515" type="curve" smooth="yes"/>
      <point x="215" y="491" type="line"/>
    </contour>
    <contour>
      <point x="290" y="461" type="line" smooth="yes"/>
      <point x="320" y="467"/>
      <point x="350" y="466"/>
      <point x="372" y="469" type="curve" smooth="yes"/>
      <point x="392" y="471"/>
      <point x="407" y="477"/>
      <point x="407" y="495" type="curve" smooth="yes"/>
      <point x="407" y="510"/>
      <point x="395" y="522"/>
      <point x="378" y="522" type="curve" smooth="yes"/>
      <point x="352" y="522"/>
      <point x="322" y="489"/>
      <point x="284" y="475" type="curve" smooth="yes"/>
      <point x="259" y="466" type="line"/>
      <point x="262" y="455" type="line"/>
    </contour>
  </outline>
</glyph>
<glyph name="slash" format="1">
  <advance width="418.0"/>
  <unicode hex="002F"/>
  <outline>
    <contour>
      <point x="383" y="561" type="line"/>
      <point x="356" y="561" type="line"/>
      <point x="21" y="-81" type="line"/>
      <point x="49" y="-81" type="line"/>
    </contour>
  </outline>
</glyph>
<glyph name="two" format="1">
  <advance width="736"/>
  <unicode hex="0032"/>
  <outline>
    <contour>
      <point x="655" y="-1" type="line"/>
      <point x="655" y="183" type="line"/>
      <point x="632" y="183" type="line"/>
      <point x="632" y="22" type="line"/>
      <point x="60" y="22" type="line"/>
      <point x="60" y="-1" type="line"/>
    </contour>
    <contour>
      <point x="638" y="436"/>
      <point x="512" y="481"/>
      <point x="391" y="481" type="curve" smooth="yes"/>
      <point x="254" y="481"/>
      <point x="147" y="436"/>
      <point x="66" y="366" type="curve"/>
      <point x="82" y="348" type="line"/>
      <point x="163" y="414"/>
      <point x="265" y="458"/>
      <point x="391" y="458" type="curve" smooth="yes"/>
      <point x="508" y="458"/>
      <point x="612" y="416"/>
      <point x="613" y="343" type="curve" smooth="yes"/>
      <point x="613" y="261"/>
      <point x="518" y="248"/>
      <point x="346" y="215" type="curve" smooth="yes"/>
      <point x="147" y="179"/>
      <point x="60" y="132"/>
      <point x="60" y="15" type="curve"/>
      <point x="85" y="15" type="line"/>
      <point x="85" y="117"/>
      <point x="159" y="157"/>
      <point x="356" y="193" type="curve" smooth="yes"/>
      <point x="531" y="225"/>
      <point x="638" y="246"/>
      <point x="638" y="341" type="curve" smooth="yes"/>
    </contour>
  </outline>
</glyph>
<glyph name="three" format="1">
  <advance width="704"/>
  <unicode hex="0033"/>
  <outline>
    <contour>
      <point x="528" y="-12"/>
      <point x="638" y="42"/>
      <point x="638" y="114" type="curve" smooth="yes"/>
      <point x="638" y="208"/>
      <point x="510" y="233"/>
      <point x="343" y="233" type="curve"/>
      <point x="343" y="223" type="line"/>
      <point x="511" y="223"/>
      <point x="611" y="279"/>
      <point x="611" y="351" type="curve" smooth="yes"/>
      <point x="611" y="436"/>
      <point x="506" y="481"/>
      <point x="368" y="481" type="curve" smooth="yes"/>
      <point x="247" y="481"/>
      <point x="139" y="452"/>
      <point x="56" y="410" type="curve"/>
      <point x="65" y="389" type="line"/>
      <point x="145" y="430"/>
      <point x="247" y="458"/>
      <point x="368" y="458" type="curve" smooth="yes"/>
      <point x="502" y="458"/>
      <point x="586" y="416"/>
      <point x="586" y="351" type="curve" smooth="yes"/>
      <point x="586" y="291"/>
      <point x="508" y="240"/>
      <point x="337" y="240" type="curve" smooth="yes"/>
      <point x="176" y="240" type="line"/>
      <point x="176" y="218" type="line"/>
      <point x="337" y="218" type="line" smooth="yes"/>
      <point x="534" y="218"/>
      <point x="613" y="183"/>
      <point x="613" y="114" type="curve" smooth="yes"/>
      <point x="613" y="53"/>
      <point x="508" y="10"/>
      <point x="358" y="10" type="curve" smooth="yes"/>
      <point x="201" y="10"/>
      <point x="100" y="60"/>
      <point x="55" y="94" type="curve"/>
      <point x="40" y="75" type="line"/>
      <point x="87" y="42"/>
      <point x="192" y="-12"/>
      <point x="356" y="-12" type="curve" smooth="yes"/>
    </contour>
  </outline>
</glyph>
<glyph name="six" format="1">
  <advance width="711"/>
  <unicode hex="0036"/>
  <outline>
    <contour>
      <point x="523" y="-11"/>
      <point x="657" y="46"/>
      <point x="657" y="140" type="curve" smooth="yes"/>
      <point x="657" y="236"/>
      <point x="550" y="273"/>
      <point x="404" y="275" type="curve" smooth="yes"/>
      <point x="270" y="276"/>
      <point x="160" y="246"/>
      <point x="84" y="214" type="curve"/>
      <point x="84" y="189" type="line"/>
      <point x="159" y="224"/>
      <point x="262" y="252"/>
      <point x="394" y="251" type="curve" smooth="yes"/>
      <point x="550" y="250"/>
      <point x="632" y="215"/>
      <point x="630" y="139" type="curve" smooth="yes"/>
      <point x="628" y="66"/>
      <point x="518" y="13"/>
      <point x="369" y="13" type="curve" smooth="yes"/>
      <point x="205" y="13"/>
      <point x="90" y="78"/>
      <point x="90" y="208" type="curve" smooth="yes"/>
      <point x="90" y="360"/>
      <point x="222" y="455"/>
      <point x="394" y="455" type="curve" smooth="yes"/>
      <point x="491" y="455"/>
      <point x="555" y="439"/>
      <point x="610" y="424" type="curve"/>
      <point x="616" y="447" type="line"/>
      <point x="559" y="464"/>
      <point x="498" y="480"/>
      <point x="394" y="480" type="curve" smooth="yes"/>
      <point x="212" y="480"/>
      <point x="65" y="376"/>
      <point x="65" y="211" type="curve" smooth="yes"/>
      <point x="65" y="60"/>
      <point x="182" y="-11"/>
      <point x="369" y="-11" type="curve" smooth="yes"/>
    </contour>
  </outline>
</glyph>
<glyph name="eight" format="1">
  <advance width="782"/>
  <unicode hex="0038"/>
  <outline>
    <contour>
      <point x="611" y="-11"/>
      <point x="711" y="50"/>
      <point x="711" y="121" type="curve" smooth="yes"/>
      <point x="711" y="177"/>
      <point x="652" y="240"/>
      <point x="391" y="246" type="curve" smooth="yes"/>
      <point x="179" y="251"/>
      <point x="116" y="289"/>
      <point x="116" y="348" type="curve" smooth="yes"/>
      <point x="116" y="408"/>
      <point x="211" y="457"/>
      <point x="382" y="457" type="curve" smooth="yes"/>
      <point x="571" y="457"/>
      <point x="667" y="398"/>
      <point x="667" y="334" type="curve" smooth="yes"/>
      <point x="667" y="269"/>
      <point x="600" y="246"/>
      <point x="534" y="218" type="curve"/>
      <point x="562" y="211" type="line"/>
      <point x="627" y="239"/>
      <point x="692" y="268"/>
      <point x="692" y="334" type="curve" smooth="yes"/>
      <point x="692" y="409"/>
      <point x="591" y="480"/>
      <point x="383" y="480" type="curve" smooth="yes"/>
      <point x="191" y="480"/>
      <point x="90" y="419"/>
      <point x="90" y="348" type="curve" smooth="yes"/>
      <point x="90" y="283"/>
      <point x="151" y="226"/>
      <point x="390" y="223" type="curve" smooth="yes"/>
      <point x="622" y="218"/>
      <point x="686" y="173"/>
      <point x="686" y="121" type="curve" smooth="yes"/>
      <point x="686" y="60"/>
      <point x="591" y="12"/>
      <point x="401" y="12" type="curve" smooth="yes"/>
      <point x="191" y="12"/>
      <point x="95" y="71"/>
      <point x="95" y="135" type="curve" smooth="yes"/>
      <point x="95" y="189"/>
      <point x="151" y="224"/>
      <point x="227" y="250" type="curve"/>
      <point x="200" y="258" type="line"/>
      <point x="125" y="230"/>
      <point x="70" y="190"/>
      <point x="70" y="135" type="curve" smooth="yes"/>
      <point x="70" y="59"/>
      <point x="172" y="-11"/>
      <point x="398" y="-11" type="curve" smooth="yes"/>
    </contour>
  </outline>
</glyph>
<glyph name="nine" format="1">
  <advance width="711"/>
  <unicode hex="0039"/>
  <outline>
    <contour>
      <point x="499" y="-11"/>
      <point x="646" y="91"/>
      <point x="646" y="256" type="curve" smooth="yes"/>
      <point x="646" y="407"/>
      <point x="528" y="480"/>
      <point x="342" y="480" type="curve" smooth="yes"/>
      <point x="189" y="480"/>
      <point x="55" y="422"/>
      <point x="55" y="328" type="curve" smooth="yes"/>
      <point x="55" y="231"/>
      <point x="161" y="195"/>
      <point x="307" y="193" type="curve" smooth="yes"/>
      <point x="442" y="191"/>
      <point x="551" y="221"/>
      <point x="628" y="255" type="curve"/>
      <point x="628" y="279" type="line"/>
      <point x="553" y="244"/>
      <point x="448" y="215"/>
      <point x="317" y="216" type="curve" smooth="yes"/>
      <point x="161" y="218"/>
      <point x="80" y="252"/>
      <point x="81" y="329" type="curve" smooth="yes"/>
      <point x="84" y="401"/>
      <point x="192" y="455"/>
      <point x="342" y="455" type="curve" smooth="yes"/>
      <point x="507" y="455"/>
      <point x="622" y="390"/>
      <point x="622" y="259" type="curve" smooth="yes"/>
      <point x="622" y="107"/>
      <point x="490" y="13"/>
      <point x="317" y="13" type="curve" smooth="yes"/>
      <point x="220" y="13"/>
      <point x="157" y="29"/>
      <point x="101" y="43" type="curve"/>
      <point x="95" y="21" type="line"/>
      <point x="152" y="5"/>
      <point x="214" y="-11"/>
      <point x="317" y="-11" type="curve" smooth="yes"/>
    </contour>
  </outline>
</glyph>
<glyph name="colon" format="1">
  <advance width="275"/>
  <unicode hex="003A"/>
  <outline>
    <contour>
      <point x="169" y="301"/>
      <point x="186" y="316"/>
      <point x="186" y="334" type="curve"/>
      <point x="186" y="353"/>
      <point x="169" y="366"/>
      <point x="137" y="366" type="curve"/>
      <point x="106" y="366"/>
      <point x="89" y="353"/>
      <point x="89" y="334" type="curve"/>
      <point x="89" y="316"/>
      <point x="106" y="301"/>
      <point x="137" y="301" type="curve"/>
    </contour>
    <contour>
      <point x="169" y="-11"/>
      <point x="186" y="3"/>
      <point x="186" y="21" type="curve"/>
      <point x="186" y="40"/>
      <point x="169" y="53"/>
      <point x="137" y="53" type="curve"/>
      <point x="106" y="53"/>
      <point x="89" y="40"/>
      <point x="89" y="21" type="curve"/>
      <point x="89" y="3"/>
      <point x="106" y="-11"/>
      <point x="137" y="-11" type="curve"/>
    </contour>
  </outline>
</glyph>
<glyph name="less" format="1">
  <advance width="576"/>
  <unicode hex="003C"/>
  <outline>
    <contour>
      <point x="496" y="399" type="line"/>
      <point x="496" y="424" type="line"/>
      <point x="40" y="236" type="line"/>
      <point x="40" y="233" type="line"/>
      <point x="67" y="226" type="line"/>
    </contour>
    <contour>
      <point x="496" y="72" type="line"/>
      <point x="67" y="243" type="line"/>
      <point x="40" y="236" type="line"/>
      <point x="40" y="233" type="line"/>
      <point x="496" y="47" type="line"/>
    </contour>
  </outline>
</glyph>
<glyph name="question" format="1">
  <advance width="584"/>
  <unicode hex="003F"/>
  <outline>
    <contour>
      <point x="307" y="-11"/>
      <point x="324" y="3"/>
      <point x="324" y="21" type="curve"/>
      <point x="324" y="40"/>
      <point x="307" y="53"/>
      <point x="275" y="53" type="curve"/>
      <point x="244" y="53"/>
      <point x="225" y="40"/>
      <point x="225" y="21" type="curve"/>
      <point x="225" y="3"/>
      <point x="244" y="-11"/>
      <point x="275" y="-11" type="curve"/>
    </contour>
    <contour>
      <point x="147" y="471" type="line"/>
      <point x="197" y="492"/>
      <point x="247" y="506"/>
      <point x="316" y="506" type="curve" smooth="yes"/>
      <point x="405" y="506"/>
      <point x="475" y="468"/>
      <point x="475" y="409" type="curve" smooth="yes"/>
      <point x="475" y="357"/>
      <point x="423" y="330"/>
      <point x="364" y="309" type="curve" smooth="yes"/>
      <point x="291" y="281"/>
      <point x="215" y="264"/>
      <point x="215" y="215" type="curve" smooth="yes"/>
      <point x="215" y="188"/>
      <point x="230" y="161"/>
      <point x="252" y="129" type="curve"/>
      <point x="265" y="133" type="line"/>
      <point x="250" y="161"/>
      <point x="237" y="181"/>
      <point x="237" y="209" type="curve" smooth="yes"/>
      <point x="237" y="248"/>
      <point x="302" y="264"/>
      <point x="371" y="288" type="curve" smooth="yes"/>
      <point x="436" y="310"/>
      <point x="500" y="341"/>
      <point x="500" y="408" type="curve" smooth="yes"/>
      <point x="500" y="489"/>
      <point x="412" y="530"/>
      <point x="316" y="530" type="curve" smooth="yes"/>
      <point x="247" y="530"/>
      <point x="195" y="515"/>
      <point x="140" y="494" type="curve"/>
    </contour>
  </outline>
</glyph>
<glyph name="Q" format="1">
  <advance width="920"/>
  <unicode hex="0051"/>
  <outline>
    <contour>
      <point x="676" y="-11"/>
      <point x="844" y="88"/>
      <point x="844" y="259" type="curve"/>
      <point x="844" y="431"/>
      <point x="676" y="531"/>
      <point x="460" y="531" type="curve"/>
      <point x="242" y="531"/>
      <point x="75" y="431"/>
      <point x="75" y="259" type="curve"/>
      <point x="75" y="88"/>
      <point x="242" y="-11"/>
      <point x="460" y="-11" type="curve"/>
    </contour>
    <contour>
      <point x="831" y="-160"/>
      <point x="894" y="-101"/>
      <point x="904" y="-15" type="curve"/>
      <point x="882" y="-10" type="line"/>
      <point x="872" y="-88"/>
      <point x="816" y="-137"/>
      <point x="738" y="-137" type="curve" smooth="yes"/>
      <point x="660" y="-137"/>
      <point x="603" y="-82"/>
      <point x="535" y="0" type="curve" smooth="yes"/>
      <point x="517" y="22" type="line" smooth="yes"/>
      <point x="423" y="133"/>
      <point x="356" y="223"/>
      <point x="180" y="223" type="curve" smooth="yes"/>
      <point x="99" y="223" type="line"/>
      <point x="99" y="199" type="line"/>
      <point x="180" y="199" type="line" smooth="yes"/>
      <point x="342" y="199"/>
      <point x="410" y="113"/>
      <point x="492" y="15" type="curve" smooth="yes"/>
      <point x="505" y="-1" type="line" smooth="yes"/>
      <point x="587" y="-101"/>
      <point x="646" y="-160"/>
      <point x="738" y="-160" type="curve" smooth="yes"/>
    </contour>
    <contour>
      <point x="252" y="12"/>
      <point x="100" y="105"/>
      <point x="100" y="259" type="curve"/>
      <point x="100" y="414"/>
      <point x="252" y="507"/>
      <point x="460" y="507" type="curve"/>
      <point x="666" y="507"/>
      <point x="819" y="414"/>
      <point x="819" y="259" type="curve"/>
      <point x="819" y="105"/>
      <point x="666" y="12"/>
      <point x="460" y="12" type="curve"/>
    </contour>
    <contour>
      <point x="458" y="697" type="move" name="top"/>
    </contour>
    <contour>
      <point x="458" y="155" type="move" name="bottom"/>
    </contour>
  </outline>
</glyph>
<glyph name="f" format="1">
  <advance width="556"/>
  <unicode hex="0066"/>
  <outline>
    <contour>
      <point x="236" y="-1" type="line"/>
      <point x="236" y="389" type="line"/>
      <point x="236" y="485"/>
      <point x="277" y="532"/>
      <point x="375" y="532" type="curve" smooth="yes"/>
      <point x="432" y="532"/>
      <point x="498" y="517"/>
      <point x="548" y="497" type="curve"/>
      <point x="556" y="520" type="line"/>
      <point x="506" y="536"/>
      <point x="441" y="556"/>
      <point x="376" y="556" type="curve" smooth="yes"/>
      <point x="261" y="556"/>
      <point x="211" y="494"/>
      <point x="211" y="385" type="curve"/>
      <point x="211" y="-1" type="line"/>
    </contour>
    <contour>
      <point x="443" y="-1" type="line"/>
      <point x="443" y="22" type="line"/>
      <point x="50" y="22" type="line"/>
      <point x="50" y="-1" type="line"/>
    </contour>
    <contour>
      <point x="461" y="333" type="line"/>
      <point x="461" y="357" type="line"/>
      <point x="50" y="357" type="line"/>
      <point x="50" y="333" type="line"/>
    </contour>
  </outline>
</glyph>
<glyph name="q" format="1">
  <advance width="908"/>
  <unicode hex="0071"/>
  <outline>
    <contour>
      <point x="450" y="-12"/>
      <point x="572" y="52"/>
      <point x="688" y="135" type="curve"/>
      <point x="688" y="161" type="line"/>
      <point x="562" y="72"/>
      <point x="433" y="12"/>
      <point x="319" y="12" type="curve"/>
      <point x="185" y="12"/>
      <point x="106" y="72"/>
      <point x="106" y="160" type="curve"/>
      <point x="106" y="271"/>
      <point x="232" y="343"/>
      <point x="385" y="342" type="curve" smooth="yes"/>
      <point x="527" y="343"/>
      <point x="703" y="284"/>
      <point x="833" y="223" type="curve"/>
      <point x="833" y="248" type="line"/>
      <point x="704" y="309"/>
      <point x="538" y="366"/>
      <point x="385" y="366" type="curve" smooth="yes"/>
      <point x="220" y="366"/>
      <point x="81" y="289"/>
      <point x="81" y="160" type="curve"/>
      <point x="81" y="52"/>
      <point x="176" y="-12"/>
      <point x="319" y="-12" type="curve"/>
    </contour>
    <contour>
      <point x="883" y="-167" type="line"/>
      <point x="883" y="-143" type="line"/>
      <point x="483" y="-143" type="line"/>
      <point x="483" y="-167" type="line"/>
    </contour>
    <contour>
      <point x="701" y="-167" type="line"/>
      <point x="701" y="368" type="line"/>
      <point x="688" y="368" type="line"/>
      <point x="676" y="300" type="line"/>
      <point x="676" y="-167" type="line"/>
    </contour>
    <contour>
      <point x="383" y="345" type="move" name="center"/>
    </contour>
    <contour>
      <point x="383" y="155" type="move" name="bottom"/>
    </contour>
    <contour>
      <point x="383" y="532" type="move" name="top"/>
    </contour>
  </outline>
</glyph>
<glyph name="t" format="1">
  <advance width="525"/>
  <unicode hex="0074"/>
  <outline>
    <contour>
      <point x="357" y="-11"/>
      <point x="421" y="13"/>
      <point x="465" y="34" type="curve"/>
      <point x="454" y="55" type="line"/>
      <point x="413" y="34"/>
      <point x="354" y="12"/>
      <point x="285" y="12" type="curve" smooth="yes"/>
      <point x="223" y="12"/>
      <point x="181" y="40"/>
      <point x="181" y="123" type="curve"/>
      <point x="181" y="456" type="line"/>
      <point x="156" y="456" type="line"/>
      <point x="156" y="123" type="line"/>
      <point x="156" y="25"/>
      <point x="206" y="-11"/>
      <point x="287" y="-11" type="curve" smooth="yes"/>
    </contour>
    <contour>
      <point x="420" y="333" type="line"/>
      <point x="420" y="357" type="line"/>
      <point x="25" y="357" type="line"/>
      <point x="25" y="333" type="line"/>
    </contour>
    <contour>
      <point x="261" y="155" type="move" name="bottom"/>
    </contour>
    <contour>
      <point x="261" y="622" type="move" name="top"/>
    </contour>
    <contour>
      <point x="229" y="618" type="move" name="topright"/>
    </contour>
    <contour>
      <point x="261" y="345" type="move" name="center"/>
    </contour>
  </outline>
</glyph>
<glyph name="z" format="1">
  <advance width="768"/>
  <unicode hex="007A"/>
  <outline>
    <contour>
      <point x="613" y="259"/>
      <point x="500" y="226"/>
      <point x="382" y="189" type="curve" smooth="yes"/>
      <point x="270" y="154"/>
      <point x="155" y="115"/>
      <point x="100" y="-1" type="curve"/>
      <point x="122" y="-11" type="line"/>
      <point x="175" y="95"/>
      <point x="281" y="135"/>
      <point x="386" y="169" type="curve" smooth="yes"/>
      <point x="511" y="208"/>
      <point x="634" y="240"/>
      <point x="671" y="358" type="curve"/>
      <point x="649" y="366" type="line"/>
    </contour>
    <contour>
      <point x="637" y="-11"/>
      <point x="694" y="40"/>
      <point x="708" y="120" type="curve"/>
      <point x="684" y="124" type="line"/>
      <point x="671" y="46"/>
      <point x="606" y="12"/>
      <point x="524" y="12" type="curve" smooth="yes"/>
      <point x="436" y="12"/>
      <point x="329" y="50"/>
      <point x="201" y="104" type="curve"/>
      <point x="185" y="89" type="line"/>
      <point x="315" y="34"/>
      <point x="426" y="-11"/>
      <point x="523" y="-11" type="curve" smooth="yes"/>
    </contour>
    <contour>
      <point x="137" y="218" type="line"/>
      <point x="137" y="344" type="line"/>
      <point x="353" y="344"/>
      <point x="471" y="290"/>
      <point x="587" y="249" type="curve"/>
      <point x="595" y="268" type="line"/>
      <point x="480" y="309"/>
      <point x="369" y="366"/>
      <point x="137" y="366" type="curve" smooth="yes"/>
      <point x="112" y="366" type="line"/>
      <point x="112" y="218" type="line"/>
    </contour>
    <contour>
      <point x="427" y="523" type="move" name="top"/>
    </contour>
    <contour>
      <point x="387" y="155" type="move" name="bottom"/>
    </contour>
  </outline>
</glyph>
<glyph name="bar" format="1">
  <advance width="276"/>
  <unicode hex="007C"/>
  <outline>
    <contour>
      <point x="125" y="-148" type="line"/>
      <point x="150" y="-148" type="line"/>
      <point x="150" y="635" type="line"/>
      <point x="125" y="635" type="line"/>
    </contour>
  </outline>
</glyph>
<glyph name="asciitilde" format="1">
  <advance width="730"/>
  <unicode hex="007E"/>
  <outline>
    <contour>
      <point x="619" y="135"/>
      <point x="657" y="229"/>
      <point x="660" y="325" type="curve"/>
      <point x="636" y="328" type="line"/>
      <point x="633" y="231"/>
      <point x="601" y="159"/>
      <point x="520" y="159" type="curve" smooth="yes"/>
      <point x="462" y="159"/>
      <point x="415" y="208"/>
      <point x="375" y="249" type="curve" smooth="yes"/>
      <point x="323" y="300"/>
      <point x="277" y="343"/>
      <point x="212" y="343" type="curve" smooth="yes"/>
      <point x="116" y="343"/>
      <point x="74" y="250"/>
      <point x="70" y="154" type="curve"/>
      <point x="94" y="151" type="line"/>
      <point x="97" y="248"/>
      <point x="135" y="319"/>
      <point x="211" y="319" type="curve" smooth="yes"/>
      <point x="273" y="319"/>
      <point x="316" y="271"/>
      <point x="356" y="230" type="curve" smooth="yes"/>
      <point x="407" y="179"/>
      <point x="458" y="135"/>
      <point x="518" y="135" type="curve" smooth="yes"/>
    </contour>
  </outline>
</glyph>
<glyph name="exclamdown" format="1">
  <advance width="356"/>
  <unicode hex="00A1"/>
  <outline>
    <contour>
      <point x="155" y="382" type="line"/>
      <point x="150" y="258" type="line" smooth="yes"/>
      <point x="145" y="106"/>
      <point x="132" y="5"/>
      <point x="132" y="-13" type="curve"/>
      <point x="132" y="-30"/>
      <point x="141" y="-45"/>
      <point x="162" y="-45" type="curve"/>
      <point x="184" y="-45"/>
      <point x="193" y="-30"/>
      <point x="193" y="-13" type="curve"/>
      <point x="193" y="5"/>
      <point x="180" y="105"/>
      <point x="175" y="258" type="curve" smooth="yes"/>
      <point x="171" y="382" type="line"/>
    </contour>
    <contour>
      <point x="195" y="476"/>
      <point x="212" y="490"/>
      <point x="212" y="509" type="curve"/>
      <point x="212" y="526"/>
      <point x="195" y="541"/>
      <point x="163" y="541" type="curve"/>
      <point x="131" y="541"/>
      <point x="114" y="526"/>
      <point x="114" y="509" type="curve"/>
      <point x="114" y="490"/>
      <point x="131" y="476"/>
      <point x="163" y="476" type="curve"/>
    </contour>
  </outline>
</glyph>
<glyph name="cent" format="1">
  <advance width="722.0"/>
  <unicode hex="00A2"/>
  <outline>
    <contour>
      <point x="477" y="56"/>
      <point x="571" y="93"/>
      <point x="642" y="146" type="curve"/>
      <point x="630" y="164" type="line"/>
      <point x="561" y="116"/>
      <point x="466" y="78"/>
      <point x="346" y="79" type="curve" smooth="yes"/>
      <point x="214" y="80"/>
      <point x="106" y="133"/>
      <point x="106" y="227" type="curve" smooth="yes"/>
      <point x="106" y="341"/>
      <point x="237" y="391"/>
      <point x="356" y="390" type="curve" smooth="yes"/>
      <point x="461" y="389"/>
      <point x="560" y="351"/>
      <point x="633" y="265" type="curve"/>
      <point x="638" y="266" type="line"/>
      <point x="638" y="403" type="line"/>
      <point x="616" y="403" type="line"/>
      <point x="616" y="303" type="line"/>
      <point x="632" y="298" type="line"/>
      <point x="580" y="360"/>
      <point x="477" y="411"/>
      <point x="358" y="414" type="curve" smooth="yes"/>
      <point x="227" y="414"/>
      <point x="81" y="359"/>
      <point x="81" y="227" type="curve" smooth="yes"/>
      <point x="81" y="113"/>
      <point x="204" y="56"/>
      <point x="346" y="56" type="curve" smooth="yes"/>
    </contour>
    <contour>
      <point x="371" y="-11" type="line"/>
      <point x="371" y="66" type="line"/>
      <point x="371" y="74" type="line"/>
      <point x="371" y="401" type="line"/>
      <point x="371" y="406" type="line"/>
      <point x="371" y="480" type="line"/>
      <point x="348" y="480" type="line"/>
      <point x="348" y="407" type="line"/>
      <point x="348" y="401" type="line"/>
      <point x="348" y="71" type="line"/>
      <point x="348" y="66" type="line"/>
      <point x="348" y="-11" type="line"/>
    </contour>
  </outline>
</glyph>
<glyph name="ordfeminine" format="1">
  <advance width="506"/>
  <unicode hex="00AA"/>
  <outline>
    <contour>
      <point x="468" y="310"/>
      <point x="486" y="341"/>
      <point x="486" y="371" type="curve" smooth="yes"/>
      <point x="486" y="383" type="line"/>
      <point x="465" y="383" type="line"/>
      <point x="465" y="371" type="line" smooth="yes"/>
      <point x="465" y="347"/>
      <point x="452" y="330"/>
      <point x="432" y="330" type="curve" smooth="yes"/>
      <point x="407" y="330"/>
      <point x="395" y="351"/>
      <point x="395" y="381" type="curve"/>
      <point x="395" y="430" type="line" smooth="yes"/>
      <point x="395" y="490"/>
      <point x="350" y="531"/>
      <point x="257" y="531" type="curve" smooth="yes"/>
      <point x="199" y="531"/>
      <point x="139" y="518"/>
      <point x="74" y="496" type="curve"/>
      <point x="78" y="476" type="line"/>
      <point x="139" y="495"/>
      <point x="195" y="509"/>
      <point x="257" y="509" type="curve" smooth="yes"/>
      <point x="342" y="509"/>
      <point x="373" y="474"/>
      <point x="373" y="430" type="curve" smooth="yes"/>
      <point x="373" y="381" type="line"/>
      <point x="373" y="340"/>
      <point x="392" y="310"/>
      <point x="432" y="310" type="curve" smooth="yes"/>
    </contour>
    <contour>
      <point x="247" y="308"/>
      <point x="321" y="325"/>
      <point x="386" y="359" type="curve"/>
      <point x="386" y="378" type="line"/>
      <point x="319" y="346"/>
      <point x="245" y="328"/>
      <point x="182" y="328" type="curve" smooth="yes"/>
      <point x="126" y="328"/>
      <point x="87" y="338"/>
      <point x="87" y="370" type="curve"/>
      <point x="87" y="404"/>
      <point x="135" y="416"/>
      <point x="207" y="416" type="curve" smooth="yes"/>
      <point x="269" y="416"/>
      <point x="334" y="407"/>
      <point x="386" y="398" type="curve"/>
      <point x="386" y="418" type="line"/>
      <point x="334" y="426"/>
      <point x="270" y="435"/>
      <point x="199" y="435" type="curve" smooth="yes"/>
      <point x="124" y="435"/>
      <point x="65" y="417"/>
      <point x="65" y="370" type="curve"/>
      <point x="65" y="325"/>
      <point x="110" y="308"/>
      <point x="182" y="308" type="curve" smooth="yes"/>
    </contour>
    <contour>
      <point x="55" y="211" type="line"/>
      <point x="454" y="211" type="line"/>
      <point x="454" y="233" type="line"/>
      <point x="55" y="233" type="line"/>
    </contour>
  </outline>
</glyph>
<glyph name="threequarters" format="1">
  <advance width="996"/>
  <unicode hex="00BE"/>
  <outline>
    <contour>
      <point x="337" y="191"/>
      <point x="402" y="221"/>
      <point x="402" y="266" type="curve" smooth="yes"/>
      <point x="402" y="325"/>
      <point x="326" y="335"/>
      <point x="239" y="335" type="curve"/>
      <point x="239" y="329" type="line"/>
      <point x="327" y="329"/>
      <point x="386" y="357"/>
      <point x="386" y="404" type="curve" smooth="yes"/>
      <point x="386" y="455"/>
      <point x="325" y="481"/>
      <point x="242" y="481" type="curve" smooth="yes"/>
      <point x="172" y="481"/>
      <point x="109" y="465"/>
      <point x="59" y="439" type="curve"/>
      <point x="69" y="420" type="line"/>
      <point x="114" y="443"/>
      <point x="172" y="460"/>
      <point x="242" y="460" type="curve" smooth="yes"/>
      <point x="315" y="460"/>
      <point x="365" y="439"/>
      <point x="365" y="404" type="curve" smooth="yes"/>
      <point x="365" y="369"/>
      <point x="319" y="341"/>
      <point x="226" y="341" type="curve" smooth="yes"/>
      <point x="130" y="341" type="line"/>
      <point x="130" y="323" type="line"/>
      <point x="226" y="323" type="line" smooth="yes"/>
      <point x="333" y="323"/>
      <point x="381" y="306"/>
      <point x="381" y="266" type="curve" smooth="yes"/>
      <point x="381" y="231"/>
      <point x="318" y="211"/>
      <point x="236" y="211" type="curve" smooth="yes"/>
      <point x="144" y="211"/>
      <point x="86" y="241"/>
      <point x="62" y="260" type="curve"/>
      <point x="50" y="243" type="line"/>
      <point x="78" y="223"/>
      <point x="140" y="191"/>
      <point x="236" y="191" type="curve" smooth="yes"/>
    </contour>
    <contour>
      <point x="357" y="-56" type="line"/>
      <point x="382" y="-71" type="line"/>
      <point x="563" y="239" type="line"/>
      <point x="753" y="544" type="line"/>
      <point x="728" y="559" type="line"/>
      <point x="546" y="249" type="line"/>
    </contour>
    <contour>
      <point x="894" y="278" type="line"/>
      <point x="863" y="278" type="line"/>
      <point x="619" y="88" type="line"/>
      <point x="644" y="82" type="line"/>
    </contour>
    <contour>
      <point x="986" y="66" type="line"/>
      <point x="986" y="88" type="line"/>
      <point x="619" y="88" type="line"/>
      <point x="619" y="66" type="line"/>
    </contour>
    <contour>
      <point x="870" y="-11" type="line"/>
      <point x="894" y="-11" type="line"/>
      <point x="894" y="278" type="line"/>
      <point x="870" y="278" type="line"/>
    </contour>
  </outline>
</glyph>
<glyph name="questiondown" format="1">
  <advance width="584"/>
  <unicode hex="00BF"/>
  <outline>
    <contour>
      <point x="333" y="529"/>
      <point x="316" y="515"/>
      <point x="316" y="497" type="curve"/>
      <point x="316" y="478"/>
      <point x="333" y="465"/>
      <point x="365" y="465" type="curve"/>
      <point x="396" y="465"/>
      <point x="415" y="478"/>
      <point x="415" y="497" type="curve"/>
      <point x="415" y="515"/>
      <point x="396" y="529"/>
      <point x="365" y="529" type="curve"/>
    </contour>
    <contour>
      <point x="493" y="47" type="line"/>
      <point x="443" y="26"/>
      <point x="393" y="12"/>
      <point x="324" y="12" type="curve" smooth="yes"/>
      <point x="235" y="12"/>
      <point x="165" y="50"/>
      <point x="165" y="109" type="curve" smooth="yes"/>
      <point x="165" y="161"/>
      <point x="217" y="188"/>
      <point x="276" y="209" type="curve" smooth="yes"/>
      <point x="349" y="237"/>
      <point x="425" y="254"/>
      <point x="425" y="303" type="curve" smooth="yes"/>
      <point x="425" y="330"/>
      <point x="410" y="357"/>
      <point x="388" y="389" type="curve"/>
      <point x="375" y="385" type="line"/>
      <point x="390" y="357"/>
      <point x="403" y="337"/>
      <point x="403" y="309" type="curve" smooth="yes"/>
      <point x="403" y="270"/>
      <point x="338" y="254"/>
      <point x="269" y="230" type="curve" smooth="yes"/>
      <point x="204" y="208"/>
      <point x="140" y="176"/>
      <point x="140" y="110" type="curve" smooth="yes"/>
      <point x="140" y="29"/>
      <point x="228" y="-12"/>
      <point x="324" y="-12" type="curve" smooth="yes"/>
      <point x="393" y="-12"/>
      <point x="445" y="2"/>
      <point x="500" y="24" type="curve"/>
    </contour>
  </outline>
</glyph>
<glyph name="Oslash" format="1">
  <advance width="909"/>
  <unicode hex="00D8"/>
  <outline>
    <contour>
      <point x="336" y="8" type="line"/>
      <point x="340" y="14" type="line"/>
      <point x="593" y="503" type="line"/>
      <point x="597" y="510" type="line"/>
      <point x="634" y="582" type="line"/>
      <point x="606" y="582" type="line"/>
      <point x="571" y="515" type="line"/>
      <point x="567" y="507" type="line"/>
      <point x="315" y="22" type="line"/>
      <point x="309" y="13" type="line"/>
      <point x="272" y="-61" type="line"/>
      <point x="300" y="-61" type="line"/>
    </contour>
    <contour>
      <point x="676" y="-11"/>
      <point x="844" y="88"/>
      <point x="844" y="259" type="curve"/>
      <point x="844" y="431"/>
      <point x="676" y="531"/>
      <point x="460" y="531" type="curve"/>
      <point x="242" y="531"/>
      <point x="75" y="431"/>
      <point x="75" y="259" type="curve"/>
      <point x="75" y="88"/>
      <point x="242" y="-11"/>
      <point x="460" y="-11" type="curve"/>
    </contour>
    <contour>
      <point x="252" y="12"/>
      <point x="100" y="105"/>
      <point x="100" y="259" type="curve"/>
      <point x="100" y="414"/>
      <point x="252" y="507"/>
      <point x="460" y="507" type="curve"/>
      <point x="666" y="507"/>
      <point x="819" y="414"/>
      <point x="819" y="259" type="curve"/>
      <point x="819" y="105"/>
      <point x="666" y="12"/>
      <point x="460" y="12" type="curve"/>
    </contour>
    <contour>
      <point x="460" y="410" type="move" name="center"/>
    </contour>
    <contour>
      <point x="461" y="156" type="move" name="ogonek"/>
    </contour>
    <contour>
      <point x="460" y="697" type="move" name="top"/>
    </contour>
    <contour>
      <point x="894" y="656" type="move" name="topright"/>
    </contour>
    <contour>
      <point x="460" y="155" type="move" name="bottom"/>
    </contour>
  </outline>
</glyph>
<glyph name="odieresis" format="1">
  <advance width="802"/>
  <unicode hex="00F6"/>
  <outline>
    <contour>
      <point x="580" y="-11"/>
      <point x="721" y="59"/>
      <point x="721" y="179" type="curve"/>
      <point x="721" y="301"/>
      <point x="580" y="366"/>
      <point x="401" y="366" type="curve"/>
      <point x="222" y="366"/>
      <point x="81" y="301"/>
      <point x="81" y="179" type="curve"/>
      <point x="81" y="59"/>
      <point x="222" y="-11"/>
      <point x="401" y="-11" type="curve" smooth="yes"/>
    </contour>
    <contour>
      <point x="233" y="12"/>
      <point x="106" y="75"/>
      <point x="106" y="179" type="curve"/>
      <point x="106" y="284"/>
      <point x="233" y="342"/>
      <point x="401" y="343" type="curve"/>
      <point x="568" y="343"/>
      <point x="696" y="284"/>
      <point x="696" y="179" type="curve"/>
      <point x="696" y="75"/>
      <point x="568" y="12"/>
      <point x="401" y="12" type="curve" smooth="yes"/>
    </contour>
    <contour>
      <point x="538" y="481"/>
      <point x="553" y="494"/>
      <point x="553" y="511" type="curve"/>
      <point x="553" y="528"/>
      <point x="538" y="539"/>
      <point x="508" y="539" type="curve"/>
      <point x="481" y="539"/>
      <point x="464" y="528"/>
      <point x="464" y="511" type="curve"/>
      <point x="464" y="494"/>
      <point x="481" y="481"/>
      <point x="508" y="481" type="curve"/>
    </contour>
    <contour>
      <point x="315" y="481"/>
      <point x="331" y="494"/>
      <point x="331" y="511" type="curve"/>
      <point x="331" y="528"/>
      <point x="315" y="539"/>
      <point x="287" y="539" type="curve"/>
      <point x="258" y="539"/>
      <point x="242" y="528"/>
      <point x="242" y="511" type="curve"/>
      <point x="242" y="494"/>
      <point x="258" y="481"/>
      <point x="287" y="481" type="curve"/>
    </contour>
    <contour>
      <point x="401" y="345" type="move" name="center"/>
    </contour>
    <contour>
      <point x="401" y="155" type="move" name="ogonek"/>
    </contour>
    <contour>
      <point x="401" y="532" type="move" name="top"/>
    </contour>
    <contour>
      <point x="771" y="523" type="move" name="topright"/>
    </contour>
    <contour>
      <point x="401" y="155" type="move" name="bottom"/>
    </contour>
  </outline>
</glyph>
<glyph name="oslash" format="1">
  <advance width="802"/>
  <unicode hex="00F8"/>
  <outline>
    <contour>
      <point x="323" y="0" type="line"/>
      <point x="328" y="10" type="line"/>
      <point x="502" y="347" type="line"/>
      <point x="506" y="356" type="line"/>
      <point x="539" y="417" type="line"/>
      <point x="510" y="417" type="line"/>
      <point x="480" y="360" type="line"/>
      <point x="475" y="351" type="line"/>
      <point x="302" y="15" type="line"/>
      <point x="296" y="5" type="line"/>
      <point x="263" y="-61" type="line"/>
      <point x="290" y="-61" type="line"/>
    </contour>
    <contour>
      <point x="580" y="-11"/>
      <point x="721" y="59"/>
      <point x="721" y="179" type="curve"/>
      <point x="721" y="301"/>
      <point x="580" y="366"/>
      <point x="401" y="366" type="curve"/>
      <point x="222" y="366"/>
      <point x="81" y="301"/>
      <point x="81" y="179" type="curve"/>
      <point x="81" y="59"/>
      <point x="222" y="-11"/>
      <point x="401" y="-11" type="curve" smooth="yes"/>
    </contour>
    <contour>
      <point x="233" y="12"/>
      <point x="106" y="75"/>
      <point x="106" y="179" type="curve"/>
      <point x="106" y="284"/>
      <point x="233" y="342"/>
      <point x="401" y="343" type="curve"/>
      <point x="568" y="343"/>
      <point x="696" y="284"/>
      <point x="696" y="179" type="curve"/>
      <point x="696" y="75"/>
      <point x="568" y="12"/>
      <point x="401" y="12" type="curve" smooth="yes"/>
    </contour>
    <contour>
      <point x="401" y="345" type="move" name="center"/>
    </contour>
    <contour>
      <point x="401" y="155" type="move" name="ogonek"/>
    </contour>
    <contour>
      <point x="401" y="532" type="move" name="top"/>
    </contour>
    <contour>
      <point x="771" y="523" type="move" name="topright"/>
    </contour>
    <contour>
      <point x="401" y="155" type="move" name="bottom"/>
    </contour>
  </outline>
</glyph>
<glyph name="thorn" format="1">
  <advance width="863"/>
  <unicode hex="00FE"/>
  <outline>
    <contour>
      <point x="641" y="-11"/>
      <point x="782" y="66"/>
      <point x="782" y="194" type="curve"/>
      <point x="782" y="303"/>
      <point x="686" y="366"/>
      <point x="543" y="366" type="curve"/>
      <point x="412" y="366"/>
      <point x="290" y="303"/>
      <point x="174" y="218" type="curve"/>
      <point x="174" y="195" type="line"/>
      <point x="299" y="284"/>
      <point x="428" y="344"/>
      <point x="543" y="344" type="curve"/>
      <point x="676" y="344"/>
      <point x="757" y="283"/>
      <point x="757" y="194" type="curve"/>
      <point x="757" y="84"/>
      <point x="630" y="10"/>
      <point x="477" y="12" type="curve"/>
      <point x="358" y="10"/>
      <point x="245" y="54"/>
      <point x="170" y="94" type="curve"/>
      <point x="170" y="72" type="line"/>
      <point x="242" y="31"/>
      <point x="348" y="-11"/>
      <point x="477" y="-11" type="curve"/>
    </contour>
    <contour>
      <point x="370" y="-167" type="line"/>
      <point x="370" y="-143" type="line"/>
      <point x="-20" y="-143" type="line"/>
      <point x="-20" y="-167" type="line"/>
    </contour>
    <contour>
      <point x="187" y="-153" type="line"/>
      <point x="187" y="520" type="line"/>
      <point x="-20" y="520" type="line"/>
      <point x="-20" y="497" type="line"/>
      <point x="162" y="497" type="line"/>
      <point x="162" y="-153" type="line"/>
    </contour>
  </outline>
</glyph>
<glyph name="Cacute" format="1">
  <advance width="892"/>
  <unicode hex="0106"/>
  <outline>
    <contour>
      <point x="647" y="-12"/>
      <point x="754" y="84"/>
      <point x="802" y="167" type="curve"/>
      <point x="781" y="180" type="line"/>
      <point x="741" y="106"/>
      <point x="632" y="12"/>
      <point x="432" y="12" type="curve"/>
      <point x="250" y="12"/>
      <point x="100" y="105"/>
      <point x="100" y="259" type="curve"/>
      <point x="100" y="414"/>
      <point x="255" y="507"/>
      <point x="441" y="507" type="curve" smooth="yes"/>
      <point x="578" y="507"/>
      <point x="696" y="461"/>
      <point x="787" y="330" type="curve"/>
      <point x="799" y="332" type="line"/>
      <point x="799" y="520" type="line"/>
      <point x="775" y="520" type="line"/>
      <point x="775" y="360" type="line"/>
      <point x="787" y="360" type="line"/>
      <point x="717" y="461"/>
      <point x="602" y="531"/>
      <point x="441" y="531" type="curve" smooth="yes"/>
      <point x="247" y="531"/>
      <point x="75" y="432"/>
      <point x="75" y="259" type="curve"/>
      <point x="75" y="88"/>
      <point x="240" y="-12"/>
      <point x="432" y="-12" type="curve"/>
    </contour>
    <contour>
      <point x="607" y="753" type="line"/>
      <point x="622" y="725" type="line"/>
      <point x="381" y="595" type="line"/>
      <point x="372" y="611" type="line"/>
    </contour>
    <contour>
      <point x="440" y="697" type="move" name="top"/>
    </contour>
    <contour>
      <point x="432" y="155" type="move" name="bottom"/>
    </contour>
  </outline>
</glyph>
<glyph name="hbar" format="1">
  <advance width="950.0"/>
  <unicode hex="0127"/>
  <outline>
    <contour>
      <point x="754" y="-1" type="line"/>
      <point x="754" y="134" type="line"/>
      <point x="754" y="256"/>
      <point x="705" y="366"/>
      <point x="549" y="366" type="curve" smooth="yes"/>
      <point x="412" y="366"/>
      <point x="290" y="263"/>
      <point x="225" y="210" type="curve"/>
      <point x="225" y="188" type="line"/>
      <point x="290" y="239"/>
      <point x="412" y="344"/>
      <point x="549" y="344" type="curve" smooth="yes"/>
      <point x="695" y="344"/>
      <point x="729" y="236"/>
      <point x="729" y="134" type="curve"/>
      <point x="729" y="-1" type="line"/>
    </contour>
    <contour>
      <point x="420" y="-1" type="line"/>
      <point x="420" y="22" type="line"/>
      <point x="30" y="22" type="line"/>
      <point x="30" y="-1" type="line"/>
    </contour>
    <contour>
      <point x="237" y="-1" type="line"/>
      <point x="237" y="520" type="line"/>
      <point x="212" y="520" type="line"/>
      <point x="212" y="-1" type="line"/>
    </contour>
    <contour>
      <point x="225" y="497" type="line"/>
      <point x="225" y="520" type="line"/>
      <point x="30" y="520" type="line"/>
      <point x="30" y="497" type="line"/>
    </contour>
    <contour>
      <point x="937" y="-1" type="line"/>
      <point x="937" y="22" type="line"/>
      <point x="546" y="22" type="line"/>
      <point x="546" y="-1" type="line"/>
    </contour>
    <contour>
      <point x="467" y="414" type="line"/>
      <point x="467" y="436" type="line"/>
      <point x="30" y="436" type="line"/>
      <point x="30" y="414" type="line"/>
    </contour>
    <contour>
      <point x="467" y="345" type="move" name="center"/>
    </contour>
    <contour>
      <point x="467" y="165" type="move" name="bottom"/>
    </contour>
    <contour>
      <point x="467" y="532" type="move" name="top"/>
    </contour>
  </outline>
</glyph>
<glyph name="iogonek" format="1">
  <advance width="470"/>
  <unicode hex="012F"/>
  <outline>
    <contour>
      <point x="258" y="-1" type="line"/>
      <point x="258" y="357" type="line"/>
      <point x="233" y="357" type="line"/>
      <point x="233" y="-1" type="line"/>
    </contour>
    <contour>
      <point x="441" y="-1" type="line"/>
      <point x="441" y="22" type="line"/>
      <point x="50" y="22" type="line"/>
      <point x="50" y="-1" type="line"/>
    </contour>
    <contour>
      <point x="258" y="334" type="line"/>
      <point x="258" y="357" type="line"/>
      <point x="50" y="357" type="line"/>
      <point x="50" y="334" type="line"/>
    </contour>
    <contour>
      <point x="264" y="471"/>
      <point x="280" y="484"/>
      <point x="280" y="501" type="curve"/>
      <point x="280" y="518"/>
      <point x="264" y="531"/>
      <point x="233" y="531" type="curve"/>
      <point x="203" y="531"/>
      <point x="186" y="518"/>
      <point x="186" y="501" type="curve"/>
      <point x="186" y="484"/>
      <point x="203" y="471"/>
      <point x="233" y="471" type="curve"/>
    </contour>
    <contour>
      <point x="432" y="9" type="line"/>
      <point x="369" y="-7"/>
      <point x="332" y="-43"/>
      <point x="332" y="-86" type="curve" smooth="yes"/>
      <point x="332" y="-138"/>
      <point x="388" y="-169"/>
      <point x="453" y="-169" type="curve" smooth="yes"/>
      <point x="508" y="-169"/>
      <point x="548" y="-149"/>
      <point x="577" y="-131" type="curve"/>
      <point x="566" y="-111" type="line"/>
      <point x="540" y="-128"/>
      <point x="502" y="-146"/>
      <point x="453" y="-146" type="curve" smooth="yes"/>
      <point x="401" y="-146"/>
      <point x="357" y="-123"/>
      <point x="357" y="-83" type="curve" smooth="yes"/>
      <point x="357" y="-43"/>
      <point x="394" y="-17"/>
      <point x="441" y="-1" type="curve"/>
    </contour>
    <contour>
      <point x="441" y="165" type="move" name="ogonek"/>
    </contour>
    <contour>
      <point x="245" y="165" type="move" name="bottom"/>
    </contour>
    <contour>
      <point x="233" y="523" type="move" name="top"/>
    </contour>
  </outline>
</glyph>
<glyph name="Lcommaaccent" format="1">
  <advance width="842"/>
  <unicode hex="013B"/>
  <outline>
    <contour>
      <point x="792" y="-1" type="line"/>
      <point x="792" y="183" type="line"/>
      <point x="767" y="183" type="line"/>
      <point x="767" y="22" type="line"/>
      <point x="56" y="22" type="line"/>
      <point x="56" y="-1" type="line"/>
    </contour>
    <contour>
      <point x="264" y="12" type="line"/>
      <point x="264" y="507" type="line"/>
      <point x="239" y="507" type="line"/>
      <point x="239" y="12" type="line"/>
    </contour>
    <contour>
      <point x="446" y="496" type="line"/>
      <point x="446" y="520" type="line"/>
      <point x="56" y="520" type="line"/>
      <point x="56" y="496" type="line"/>
    </contour>
    <contour>
      <point x="500" y="-105"/>
      <point x="480" y="-86"/>
      <point x="451" y="-86" type="curve" smooth="yes"/>
      <point x="423" y="-86"/>
      <point x="406" y="-101"/>
      <point x="406" y="-118" type="curve" smooth="yes"/>
      <point x="406" y="-135"/>
      <point x="423" y="-146"/>
      <point x="445" y="-146" type="curve" smooth="yes"/>
      <point x="458" y="-146"/>
      <point x="469" y="-143"/>
      <point x="480" y="-142" type="curve"/>
      <point x="473" y="-186"/>
      <point x="441" y="-222"/>
      <point x="391" y="-267" type="curve"/>
      <point x="402" y="-279" type="line"/>
      <point x="464" y="-232"/>
      <point x="500" y="-177"/>
      <point x="500" y="-134" type="curve" smooth="yes"/>
    </contour>
    <contour>
      <point x="413" y="410" type="move" name="center"/>
    </contour>
    <contour>
      <point x="237" y="686" type="move" name="top"/>
    </contour>
    <contour>
      <point x="450" y="504" type="move" name="topright"/>
    </contour>
    <contour>
      <point x="451" y="165" type="move" name="bottom"/>
    </contour>
  </outline>
</glyph>
<glyph name="ncaron" format="1">
  <advance width="960"/>
  <unicode hex="0148"/>
  <outline>
    <contour>
      <point x="774" y="-1" type="line"/>
      <point x="774" y="134" type="line"/>
      <point x="774" y="256"/>
      <point x="726" y="366"/>
      <point x="568" y="366" type="curve" smooth="yes"/>
      <point x="432" y="366"/>
      <point x="309" y="263"/>
      <point x="245" y="210" type="curve"/>
      <point x="245" y="187" type="line"/>
      <point x="309" y="238"/>
      <point x="432" y="343"/>
      <point x="568" y="343" type="curve" smooth="yes"/>
      <point x="716" y="343"/>
      <point x="749" y="236"/>
      <point x="749" y="134" type="curve"/>
      <point x="749" y="-1" type="line"/>
    </contour>
    <contour>
      <point x="418" y="-1" type="line"/>
      <point x="418" y="22" type="line"/>
      <point x="50" y="22" type="line"/>
      <point x="50" y="-1" type="line"/>
    </contour>
    <contour>
      <point x="258" y="-1" type="line"/>
      <point x="258" y="357" type="line"/>
      <point x="233" y="357" type="line"/>
      <point x="233" y="-1" type="line"/>
    </contour>
    <contour>
      <point x="258" y="333" type="line"/>
      <point x="258" y="357" type="line"/>
      <point x="50" y="357" type="line"/>
      <point x="50" y="333" type="line"/>
    </contour>
    <contour>
      <point x="947" y="-1" type="line"/>
      <point x="947" y="22" type="line"/>
      <point x="588" y="22" type="line"/>
      <point x="588" y="-1" type="line"/>
    </contour>
    <contour>
      <point x="521" y="463" type="line"/>
      <point x="354" y="591" type="line"/>
      <point x="344" y="578" type="line"/>
      <point x="511" y="436" type="line"/>
      <point x="530" y="436" type="line"/>
      <point x="698" y="578" type="line"/>
      <point x="688" y="591" type="line"/>
    </contour>
    <contour>
      <point x="521" y="532" type="move" name="top"/>
    </contour>
    <contour>
      <point x="511" y="165" type="move" name="bottom"/>
    </contour>
  </outline>
</glyph>
<glyph name="racute" format="1">
  <advance width="727"/>
  <unicode hex="0155"/>
  <outline>
    <contour>
      <point x="377" y="285"/>
      <point x="499" y="343"/>
      <point x="627" y="343" type="curve"/>
      <point x="627" y="218" type="line"/>
      <point x="652" y="218" type="line"/>
      <point x="652" y="366" type="line"/>
      <point x="627" y="366" type="line"/>
      <point x="483" y="366"/>
      <point x="367" y="305"/>
      <point x="245" y="210" type="curve"/>
      <point x="245" y="187" type="line"/>
    </contour>
    <contour>
      <point x="441" y="-1" type="line"/>
      <point x="441" y="22" type="line"/>
      <point x="50" y="22" type="line"/>
      <point x="50" y="-1" type="line"/>
    </contour>
    <contour>
      <point x="258" y="-1" type="line"/>
      <point x="258" y="357" type="line"/>
      <point x="233" y="357" type="line"/>
      <point x="233" y="-1" type="line"/>
    </contour>
    <contour>
      <point x="258" y="333" type="line"/>
      <point x="258" y="357" type="line"/>
      <point x="50" y="357" type="line"/>
      <point x="50" y="333" type="line"/>
    </contour>
    <contour>
      <point x="524" y="579" type="line"/>
      <point x="539" y="551" type="line"/>
      <point x="297" y="421" type="line"/>
      <point x="288" y="437" type="line"/>
    </contour>
    <contour>
      <point x="356" y="523" type="move" name="top"/>
    </contour>
    <contour>
      <point x="356" y="165" type="move" name="bottom"/>
    </contour>
  </outline>
</glyph>
<glyph name="uogonek" format="1">
  <advance width="913"/>
  <unicode hex="0173"/>
  <outline>
    <contour>
      <point x="496" y="-11"/>
      <point x="592" y="39"/>
      <point x="692" y="88" type="curve"/>
      <point x="692" y="110" type="line"/>
      <point x="592" y="60"/>
      <point x="482" y="12"/>
      <point x="382" y="12" type="curve"/>
      <point x="272" y="13"/>
      <point x="211" y="59"/>
      <point x="211" y="164" type="curve"/>
      <point x="211" y="357" type="line"/>
      <point x="185" y="357" type="line"/>
      <point x="185" y="164" type="line"/>
      <point x="185" y="38"/>
      <point x="261" y="-11"/>
      <point x="382" y="-11" type="curve"/>
    </contour>
    <contour>
      <point x="198" y="333" type="line"/>
      <point x="198" y="357" type="line"/>
      <point x="14" y="357" type="line"/>
      <point x="14" y="333" type="line"/>
    </contour>
    <contour>
      <point x="802" y="-11"/>
      <point x="828" y="0"/>
      <point x="853" y="18" type="curve"/>
      <point x="843" y="38" type="line"/>
      <point x="819" y="21"/>
      <point x="797" y="12"/>
      <point x="771" y="12" type="curve" smooth="yes"/>
      <point x="738" y="12"/>
      <point x="707" y="37"/>
      <point x="707" y="93" type="curve"/>
      <point x="707" y="357" type="line"/>
      <point x="682" y="357" type="line"/>
      <point x="682" y="93" type="line"/>
      <point x="682" y="27"/>
      <point x="719" y="-11"/>
      <point x="769" y="-11" type="curve" smooth="yes"/>
    </contour>
    <contour>
      <point x="699" y="333" type="line"/>
      <point x="699" y="357" type="line"/>
      <point x="521" y="357" type="line"/>
      <point x="521" y="333" type="line"/>
    </contour>
    <contour>
      <point x="844" y="28" type="line"/>
      <point x="781" y="12"/>
      <point x="744" y="-24"/>
      <point x="744" y="-67" type="curve" smooth="yes"/>
      <point x="744" y="-119"/>
      <point x="800" y="-150"/>
      <point x="865" y="-150" type="curve" smooth="yes"/>
      <point x="920" y="-150"/>
      <point x="960" y="-130"/>
      <point x="989" y="-112" type="curve"/>
      <point x="978" y="-92" type="line"/>
      <point x="952" y="-109"/>
      <point x="914" y="-127"/>
      <point x="865" y="-127" type="curve" smooth="yes"/>
      <point x="813" y="-127"/>
      <point x="769" y="-104"/>
      <point x="769" y="-64" type="curve" smooth="yes"/>
      <point x="769" y="-24"/>
      <point x="806" y="2"/>
      <point x="853" y="18" type="curve"/>
    </contour>
    <contour>
      <point x="853" y="184" type="move" name="ogonek"/>
    </contour>
    <contour>
      <point x="426" y="513" type="move" name="top"/>
    </contour>
    <contour>
      <point x="828" y="523" type="move" name="topright"/>
    </contour>
    <contour>
      <point x="382" y="155" type="move" name="bottom"/>
    </contour>
  </outline>
</glyph>
<glyph name="wcircumflex" format="1">
  <advance width="979"/>
  <unicode hex="0175"/>
  <outline>
    <contour>
      <point x="135" y="333" type="line"/>
      <point x="144" y="333" type="line"/>
      <point x="279" y="333" type="line"/>
      <point x="279" y="357" type="line"/>
      <point x="5" y="357" type="line"/>
      <point x="5" y="333" type="line"/>
    </contour>
    <contour>
      <point x="302" y="-11" type="line"/>
      <point x="312" y="8" type="line"/>
      <point x="150" y="348" type="line"/>
      <point x="122" y="348" type="line"/>
      <point x="296" y="-11" type="line"/>
    </contour>
    <contour>
      <point x="302" y="-11" type="line"/>
      <point x="495" y="325" type="line"/>
      <point x="487" y="348" type="line"/>
      <point x="485" y="348" type="line"/>
      <point x="291" y="8" type="line"/>
      <point x="296" y="-11" type="line"/>
    </contour>
    <contour>
      <point x="678" y="-11" type="line"/>
      <point x="686" y="8" type="line"/>
      <point x="491" y="348" type="line"/>
      <point x="485" y="348" type="line"/>
      <point x="478" y="325" type="line"/>
      <point x="672" y="-11" type="line"/>
    </contour>
    <contour>
      <point x="678" y="-11" type="line"/>
      <point x="852" y="348" type="line"/>
      <point x="827" y="348" type="line"/>
      <point x="667" y="8" type="line"/>
      <point x="673" y="-11" type="line"/>
    </contour>
    <contour>
      <point x="828" y="333" type="line"/>
      <point x="837" y="333" type="line"/>
      <point x="974" y="333" type="line"/>
      <point x="974" y="357" type="line"/>
      <point x="699" y="357" type="line"/>
      <point x="699" y="333" type="line"/>
    </contour>
    <contour>
      <point x="487" y="537" type="line"/>
      <point x="654" y="409" type="line"/>
      <point x="665" y="422" type="line"/>
      <point x="497" y="564" type="line"/>
      <point x="477" y="564" type="line"/>
      <point x="310" y="422" type="line"/>
      <point x="321" y="409" type="line"/>
    </contour>
    <contour>
      <point x="487" y="523" type="move" name="top"/>
    </contour>
    <contour>
      <point x="487" y="165" type="move" name="bottom"/>
    </contour>
  </outline>
</glyph>
<glyph name="Ydieresis" format="1">
  <advance width="923"/>
  <unicode hex="0178"/>
  <outline>
    <contour>
      <point x="470" y="177" type="line"/>
      <point x="767" y="509" type="line"/>
      <point x="733" y="509" type="line"/>
      <point x="462" y="205" type="line"/>
      <point x="195" y="506" type="line"/>
      <point x="159" y="506" type="line"/>
      <point x="452" y="177" type="line"/>
    </contour>
    <contour>
      <point x="657" y="-1" type="line"/>
      <point x="657" y="22" type="line"/>
      <point x="267" y="22" type="line"/>
      <point x="267" y="-1" type="line"/>
    </contour>
    <contour>
      <point x="475" y="-1" type="line"/>
      <point x="475" y="204" type="line"/>
      <point x="450" y="204" type="line"/>
      <point x="450" y="-1" type="line"/>
    </contour>
    <contour>
      <point x="343" y="496" type="line"/>
      <point x="343" y="520" type="line"/>
      <point x="5" y="520" type="line"/>
      <point x="5" y="496" type="line"/>
    </contour>
    <contour>
      <point x="918" y="496" type="line"/>
      <point x="918" y="520" type="line"/>
      <point x="581" y="520" type="line"/>
      <point x="581" y="496" type="line"/>
    </contour>
    <contour>
      <point x="598" y="625"/>
      <point x="613" y="638"/>
      <point x="613" y="655" type="curve"/>
      <point x="613" y="671"/>
      <point x="598" y="683"/>
      <point x="568" y="683" type="curve"/>
      <point x="541" y="683"/>
      <point x="524" y="671"/>
      <point x="524" y="655" type="curve"/>
      <point x="524" y="638"/>
      <point x="541" y="625"/>
      <point x="568" y="625" type="curve"/>
    </contour>
    <contour>
      <point x="375" y="625"/>
      <point x="391" y="638"/>
      <point x="391" y="655" type="curve"/>
      <point x="391" y="671"/>
      <point x="375" y="683"/>
      <point x="347" y="683" type="curve"/>
      <point x="318" y="683"/>
      <point x="302" y="671"/>
      <point x="302" y="655" type="curve"/>
      <point x="302" y="638"/>
      <point x="318" y="625"/>
      <point x="347" y="625" type="curve"/>
    </contour>
    <contour>
      <point x="461" y="676" type="move" name="top"/>
    </contour>
    <contour>
      <point x="461" y="165" type="move" name="bottom"/>
    </contour>
  </outline>
</glyph>
<glyph name="tcommaaccent" format="1">
  <advance width="525"/>
  <unicode hex="021B"/>
  <outline>
    <contour>
      <point x="357" y="-11"/>
      <point x="421" y="13"/>
      <point x="465" y="34" type="curve"/>
      <point x="454" y="55" type="line"/>
      <point x="413" y="34"/>
      <point x="354" y="12"/>
      <point x="285" y="12" type="curve" smooth="yes"/>
      <point x="223" y="12"/>
      <point x="181" y="40"/>
      <point x="181" y="123" type="curve"/>
      <point x="181" y="456" type="line"/>
      <point x="156" y="456" type="line"/>
      <point x="156" y="123" type="line"/>
      <point x="156" y="25"/>
      <point x="206" y="-11"/>
      <point x="287" y="-11" type="curve" smooth="yes"/>
    </contour>
    <contour>
      <point x="420" y="333" type="line"/>
      <point x="420" y="357" type="line"/>
      <point x="25" y="357" type="line"/>
      <point x="25" y="333" type="line"/>
    </contour>
    <contour>
      <point x="311" y="-115"/>
      <point x="291" y="-96"/>
      <point x="261" y="-96" type="curve" smooth="yes"/>
      <point x="234" y="-96"/>
      <point x="217" y="-111"/>
      <point x="217" y="-128" type="curve" smooth="yes"/>
      <point x="217" y="-145"/>
      <point x="233" y="-156"/>
      <point x="256" y="-156" type="curve" smooth="yes"/>
      <point x="269" y="-156"/>
      <point x="280" y="-153"/>
      <point x="291" y="-152" type="curve"/>
      <point x="284" y="-196"/>
      <point x="252" y="-232"/>
      <point x="201" y="-277" type="curve"/>
      <point x="213" y="-289" type="line"/>
      <point x="274" y="-242"/>
      <point x="311" y="-187"/>
      <point x="311" y="-143" type="curve" smooth="yes"/>
    </contour>
    <contour>
      <point x="261" y="345" type="move" name="center"/>
    </contour>
    <contour>
      <point x="261" y="622" type="move" name="top"/>
    </contour>
    <contour>
      <point x="229" y="618" type="move" name="topright"/>
    </contour>
    <contour>
      <point x="261" y="155" type="move" name="bottom"/>
    </contour>
  </outline>
</glyph>
<glyph name="grBindi" format="1">
  <advance width="0"/>
  <unicode hex="0A02"/>
  <outline>
    <contour>
      <point x="-164" y="623"/>
      <point x="-148" y="636"/>
      <point x="-148" y="653" type="curve"/>
      <point x="-148" y="671"/>
      <point x="-164" y="684"/>
      <point x="-195" y="684" type="curve"/>
      <point x="-225" y="684"/>
      <point x="-242" y="671"/>
      <point x="-242" y="653" type="curve"/>
      <point x="-242" y="636"/>
      <point x="-225" y="623"/>
      <point x="-195" y="623" type="curve"/>
    </contour>
  </outline>
</glyph>
<glyph name="grCA" format="1">
  <advance width="914"/>
  <unicode hex="0A1A"/>
  <outline>
    <contour>
      <point x="924" y="467" type="line"/>
      <point x="924" y="490" type="line"/>
      <point x="-10" y="490" type="line"/>
      <point x="-10" y="467" type="line"/>
    </contour>
    <contour>
      <point x="717" y="256" type="line"/>
      <point x="717" y="279" type="line"/>
      <point x="154" y="279" type="line"/>
      <point x="166" y="256" type="line"/>
    </contour>
    <contour>
      <point x="577" y="-1" type="curve" smooth="yes"/>
      <point x="688" y="-1"/>
      <point x="727" y="45"/>
      <point x="727" y="133" type="curve" smooth="yes"/>
      <point x="727" y="488" type="line"/>
      <point x="702" y="488" type="line"/>
      <point x="702" y="136" type="line" smooth="yes"/>
      <point x="702" y="60"/>
      <point x="676" y="22"/>
      <point x="577" y="22" type="curve" smooth="yes"/>
      <point x="438" y="22"/>
      <point x="291" y="102"/>
      <point x="151" y="299" type="curve" smooth="yes"/>
      <point x="93" y="381" type="line"/>
      <point x="74" y="368" type="line"/>
      <point x="125" y="295" type="line" smooth="yes"/>
      <point x="278" y="77"/>
      <point x="430" y="-1"/>
    </contour>
  </outline>
</glyph>
<glyph name="grYA" format="1">
  <advance width="1118"/>
  <unicode hex="0A2F"/>
  <outline>
    <contour>
      <point x="584" y="271" type="line"/>
      <point x="926" y="271" type="line"/>
      <point x="926" y="294" type="line"/>
      <point x="584" y="294" type="line"/>
    </contour>
    <contour>
      <point x="930" y="488" type="line"/>
      <point x="905" y="488" type="line"/>
      <point x="905" y="0" type="line"/>
      <point x="930" y="0" type="line"/>
    </contour>
    <contour>
      <point x="1128" y="467" type="line"/>
      <point x="1128" y="490" type="line"/>
      <point x="-10" y="490" type="line"/>
      <point x="-10" y="467" type="line"/>
    </contour>
    <contour>
      <point x="448" y="59" type="curve" smooth="yes"/>
      <point x="559" y="59"/>
      <point x="598" y="105"/>
      <point x="598" y="193" type="curve" smooth="yes"/>
      <point x="598" y="294" type="line"/>
      <point x="573" y="294" type="line"/>
      <point x="573" y="196" type="line" smooth="yes"/>
      <point x="573" y="120"/>
      <point x="547" y="82"/>
      <point x="448" y="82" type="curve" smooth="yes"/>
      <point x="366" y="82"/>
      <point x="249" y="113"/>
      <point x="178" y="158" type="curve"/>
      <point x="185" y="141" type="line"/>
      <point x="219" y="304" type="line"/>
      <point x="194" y="490" type="line"/>
      <point x="168" y="490" type="line"/>
      <point x="194" y="305" type="line"/>
      <point x="159" y="140" type="line"/>
      <point x="249" y="86"/>
      <point x="355" y="59"/>
    </contour>
  </outline>
</glyph>
<glyph name="grZero" format="1">
  <advance width="862"/>
  <unicode hex="0A66"/>
  <outline>
    <contour>
      <point x="612" y="-20"/>
      <point x="772" y="65"/>
      <point x="772" y="236" type="curve"/>
      <point x="772" y="400"/>
      <point x="612" y="491"/>
      <point x="431" y="491" type="curve"/>
      <point x="250" y="491"/>
      <point x="90" y="400"/>
      <point x="90" y="236" type="curve"/>
      <point x="90" y="65"/>
      <point x="250" y="-20"/>
      <point x="431" y="-20" type="curve"/>
    </contour>
    <contour>
      <point x="262" y="3"/>
      <point x="116" y="82"/>
      <point x="116" y="236" type="curve"/>
      <point x="116" y="382"/>
      <point x="262" y="468"/>
      <point x="431" y="468" type="curve"/>
      <point x="601" y="468"/>
      <point x="747" y="382"/>
      <point x="747" y="236" type="curve"/>
      <point x="747" y="82"/>
      <point x="601" y="3"/>
      <point x="431" y="3" type="curve"/>
    </contour>
  </outline>
</glyph>
<glyph name="grTippi" format="1">
  <advance width="0"/>
  <unicode hex="0A70"/>
  <outline>
    <contour>
      <point x="-301" y="613" type="line"/>
      <point x="-319" y="633"/>
      <point x="-327" y="649"/>
      <point x="-327" y="670" type="curve" smooth="yes"/>
      <point x="-327" y="710"/>
      <point x="-284" y="746"/>
      <point x="-207" y="746" type="curve" smooth="yes"/>
      <point x="-127" y="746"/>
      <point x="-84" y="708"/>
      <point x="-84" y="673" type="curve" smooth="yes"/>
      <point x="-84" y="651"/>
      <point x="-92" y="634"/>
      <point x="-108" y="614" type="curve"/>
      <point x="-91" y="604" type="line"/>
      <point x="-75" y="622"/>
      <point x="-62" y="645"/>
      <point x="-62" y="673" type="curve" smooth="yes"/>
      <point x="-62" y="721"/>
      <point x="-110" y="767"/>
      <point x="-207" y="767" type="curve" smooth="yes"/>
      <point x="-304" y="767"/>
      <point x="-349" y="720"/>
      <point x="-349" y="671" type="curve" smooth="yes"/>
      <point x="-349" y="645"/>
      <point x="-338" y="624"/>
      <point x="-318" y="602" type="curve"/>
    </contour>
    <contour>
      <point x="-205.0" y="489.0" type="move" name="_center"/>
    </contour>
  </outline>
</glyph>
<glyph name="wacute" format="1">
  <advance width="979"/>
  <unicode hex="1E83"/>
  <outline>
    <contour>
      <point x="135" y="333" type="line"/>
      <point x="144" y="333" type="line"/>
      <point x="279" y="333" type="line"/>
      <point x="279" y="357" type="line"/>
      <point x="5" y="357" type="line"/>
      <point x="5" y="333" type="line"/>
    </contour>
    <contour>
      <point x="302" y="-11" type="line"/>
      <point x="312" y="8" type="line"/>
      <point x="150" y="348" type="line"/>
      <point x="122" y="348" type="line"/>
      <point x="296" y="-11" type="line"/>
    </contour>
    <contour>
      <point x="302" y="-11" type="line"/>
      <point x="495" y="325" type="line"/>
      <point x="487" y="348" type="line"/>
      <point x="485" y="348" type="line"/>
      <point x="291" y="8" type="line"/>
      <point x="296" y="-11" type="line"/>
    </contour>
    <contour>
      <point x="678" y="-11" type="line"/>
      <point x="686" y="8" type="line"/>
      <point x="491" y="348" type="line"/>
      <point x="485" y="348" type="line"/>
      <point x="478" y="325" type="line"/>
      <point x="672" y="-11" type="line"/>
    </contour>
    <contour>
      <point x="678" y="-11" type="line"/>
      <point x="852" y="348" type="line"/>
      <point x="827" y="348" type="line"/>
      <point x="667" y="8" type="line"/>
      <point x="673" y="-11" type="line"/>
    </contour>
    <contour>
      <point x="828" y="333" type="line"/>
      <point x="837" y="333" type="line"/>
      <point x="974" y="333" type="line"/>
      <point x="974" y="357" type="line"/>
      <point x="699" y="357" type="line"/>
      <point x="699" y="333" type="line"/>
    </contour>
    <contour>
      <point x="654" y="579" type="line"/>
      <point x="670" y="551" type="line"/>
      <point x="428" y="421" type="line"/>
      <point x="419" y="437" type="line"/>
    </contour>
    <contour>
      <point x="487" y="523" type="move" name="top"/>
    </contour>
    <contour>
      <point x="487" y="165" type="move" name="bottom"/>
    </contour>
  </outline>
</glyph>
<glyph name="zerowidthjoiner" format="1">
  <advance width="0"/>
  <unicode hex="200D"/>
  <outline>
    <contour>
      <point x="-12" y="674" type="line"/>
      <point x="-12" y="-316" type="line"/>
      <point x="13" y="-316" type="line"/>
      <point x="13" y="674" type="line"/>
    </contour>
    <contour>
      <point x="96" y="564" type="line"/>
      <point x="114" y="582" type="line"/>
      <point x="-97" y="793" type="line"/>
      <point x="-115" y="775" type="line"/>
    </contour>
    <contour>
      <point x="-114" y="582" type="line"/>
      <point x="-97" y="565" type="line"/>
      <point x="114" y="775" type="line"/>
      <point x="96" y="793" type="line"/>
    </contour>
  </outline>
</glyph>
<glyph name="quotedblbase" format="1">
  <advance width="411"/>
  <unicode hex="201E"/>
  <outline>
    <contour>
      <point x="290" y="-106"/>
      <point x="337" y="-43"/>
      <point x="337" y="-1" type="curve" smooth="yes"/>
      <point x="337" y="32"/>
      <point x="318" y="52"/>
      <point x="283" y="52" type="curve" smooth="yes"/>
      <point x="252" y="52"/>
      <point x="233" y="37"/>
      <point x="233" y="18" type="curve" smooth="yes"/>
      <point x="233" y="-1"/>
      <point x="251" y="-12"/>
      <point x="276" y="-12" type="curve" smooth="yes"/>
      <point x="291" y="-12"/>
      <point x="304" y="-10"/>
      <point x="316" y="-8" type="curve"/>
      <point x="309" y="-52"/>
      <point x="268" y="-96"/>
      <point x="217" y="-142" type="curve"/>
      <point x="229" y="-153" type="line"/>
    </contour>
    <contour>
      <point x="147" y="-106"/>
      <point x="194" y="-43"/>
      <point x="194" y="-1" type="curve" smooth="yes"/>
      <point x="194" y="32"/>
      <point x="175" y="52"/>
      <point x="140" y="52" type="curve" smooth="yes"/>
      <point x="109" y="52"/>
      <point x="90" y="37"/>
      <point x="90" y="18" type="curve" smooth="yes"/>
      <point x="90" y="-1"/>
      <point x="107" y="-12"/>
      <point x="132" y="-12" type="curve" smooth="yes"/>
      <point x="147" y="-12"/>
      <point x="160" y="-10"/>
      <point x="173" y="-8" type="curve"/>
      <point x="166" y="-52"/>
      <point x="125" y="-96"/>
      <point x="74" y="-142" type="curve"/>
      <point x="85" y="-153" type="line"/>
    </contour>
  </outline>
</glyph>
<glyph name="partialdiff" format="1">
  <advance width="651"/>
  <unicode hex="2202"/>
  <outline>
    <contour>
      <point x="425" y="-21"/>
      <point x="581" y="126"/>
      <point x="581" y="330" type="curve" smooth="yes"/>
      <point x="581" y="482"/>
      <point x="483" y="575"/>
      <point x="365" y="575" type="curve" smooth="yes"/>
      <point x="287" y="575"/>
      <point x="231" y="551"/>
      <point x="169" y="514" type="curve"/>
      <point x="182" y="492" type="line"/>
      <point x="245" y="532"/>
      <point x="298" y="552"/>
      <point x="362" y="552" type="curve" smooth="yes"/>
      <point x="476" y="552"/>
      <point x="557" y="466"/>
      <point x="557" y="329" type="curve" smooth="yes"/>
      <point x="557" y="138"/>
      <point x="407" y="3"/>
      <point x="249" y="3" type="curve" smooth="yes"/>
      <point x="140" y="3"/>
      <point x="76" y="54"/>
      <point x="76" y="135" type="curve" smooth="yes"/>
      <point x="76" y="225"/>
      <point x="172" y="291"/>
      <point x="295" y="291" type="curve" smooth="yes"/>
      <point x="425" y="291"/>
      <point x="485" y="246"/>
      <point x="543" y="180" type="curve"/>
      <point x="553" y="202" type="line"/>
      <point x="493" y="266"/>
      <point x="413" y="315"/>
      <point x="293" y="315" type="curve" smooth="yes"/>
      <point x="156" y="315"/>
      <point x="50" y="239"/>
      <point x="50" y="134" type="curve" smooth="yes"/>
      <point x="50" y="40"/>
      <point x="124" y="-21"/>
      <point x="251" y="-21" type="curve" smooth="yes"/>
    </contour>
  </outline>
</glyph>
<glyph name="integral" format="1">
  <advance width="485"/>
  <unicode hex="222B"/>
  <outline>
    <contour>
      <point x="182" y="-178"/>
      <point x="255" y="-115"/>
      <point x="255" y="22" type="curve" smooth="yes"/>
      <point x="255" y="443" type="line" smooth="yes"/>
      <point x="255" y="552"/>
      <point x="307" y="617"/>
      <point x="396" y="617" type="curve" smooth="yes"/>
      <point x="448" y="617"/>
      <point x="492" y="601"/>
      <point x="536" y="581" type="curve"/>
      <point x="545" y="601" type="line"/>
      <point x="501" y="623"/>
      <point x="451" y="641"/>
      <point x="396" y="641" type="curve" smooth="yes"/>
      <point x="302" y="641"/>
      <point x="230" y="577"/>
      <point x="230" y="441" type="curve" smooth="yes"/>
      <point x="230" y="20" type="line" smooth="yes"/>
      <point x="230" y="-90"/>
      <point x="177" y="-155"/>
      <point x="89" y="-155" type="curve" smooth="yes"/>
      <point x="36" y="-155"/>
      <point x="-7" y="-138"/>
      <point x="-51" y="-118" type="curve"/>
      <point x="-60" y="-138" type="line"/>
      <point x="-16" y="-160"/>
      <point x="34" y="-178"/>
      <point x="89" y="-178" type="curve" smooth="yes"/>
    </contour>
  </outline>
</glyph>
<glyph name="notequal" format="1">
  <advance width="638"/>
  <unicode hex="2260"/>
  <outline>
    <contour>
      <point x="194" y="-1" type="line"/>
      <point x="477" y="471" type="line"/>
      <point x="451" y="471" type="line"/>
      <point x="167" y="-1" type="line"/>
    </contour>
    <contour>
      <point x="568" y="123" type="line"/>
      <point x="568" y="145" type="line"/>
      <point x="70" y="145" type="line"/>
      <point x="70" y="123" type="line"/>
    </contour>
    <contour>
      <point x="568" y="324" type="line"/>
      <point x="568" y="347" type="line"/>
      <point x="70" y="347" type="line"/>
      <point x="70" y="324" type="line"/>
    </contour>
  </outline>
</glyph>
<glyph name="greaterequal" format="1">
  <advance width="546"/>
  <unicode hex="2265"/>
  <outline>
    <contour>
      <point x="506" y="319" type="line"/>
      <point x="506" y="322" type="line"/>
      <point x="468" y="329" type="line"/>
      <point x="100" y="186" type="line"/>
      <point x="100" y="161" type="line"/>
    </contour>
    <contour>
      <point x="499" y="12" type="line"/>
      <point x="499" y="34" type="line"/>
      <point x="81" y="34" type="line"/>
      <point x="81" y="12" type="line"/>
    </contour>
    <contour>
      <point x="506" y="319" type="line"/>
      <point x="506" y="322" type="line"/>
      <point x="100" y="478" type="line"/>
      <point x="100" y="453" type="line"/>
      <point x="468" y="311" type="line"/>
    </contour>
  </outline>
</glyph>
<glyph name="Acircumflexhookabove" format="1">
  <advance width="1028"/>
  <outline>
    <contour>
      <point x="180" y="12" type="line"/>
      <point x="516" y="502" type="line"/>
      <point x="512" y="502" type="line"/>
      <point x="849" y="12" type="line"/>
      <point x="878" y="12" type="line"/>
      <point x="533" y="510" type="line" smooth="yes"/>
      <point x="495" y="510" type="line"/>
      <point x="150" y="12" type="line"/>
    </contour>
    <contour>
      <point x="335" y="-1" type="line"/>
      <point x="335" y="22" type="line"/>
      <point x="-5" y="22" type="line"/>
      <point x="-5" y="-1" type="line"/>
    </contour>
    <contour>
      <point x="733" y="199" type="line"/>
      <point x="717" y="221" type="line"/>
      <point x="309" y="221" type="line"/>
      <point x="291" y="199" type="line"/>
    </contour>
    <contour>
      <point x="1033" y="-1" type="line"/>
      <point x="1033" y="22" type="line"/>
      <point x="693" y="22" type="line"/>
      <point x="693" y="-1" type="line"/>
    </contour>
    <contour>
      <point x="702" y="497" type="line"/>
      <point x="702" y="520" type="line"/>
      <point x="325" y="520" type="line"/>
      <point x="325" y="497" type="line"/>
    </contour>
    <contour>
      <point x="513" y="700" type="line"/>
      <point x="680" y="572" type="line"/>
      <point x="691" y="585" type="line"/>
      <point x="523" y="727" type="line"/>
      <point x="503" y="727" type="line"/>
      <point x="336" y="585" type="line"/>
      <point x="347" y="572" type="line"/>
    </contour>
    <contour>
      <point x="680" y="672" type="line"/>
      <point x="713" y="704"/>
      <point x="736" y="732"/>
      <point x="736" y="769" type="curve" smooth="yes"/>
      <point x="736" y="814"/>
      <point x="695" y="844"/>
      <point x="635" y="844" type="curve" smooth="yes"/>
      <point x="585" y="844"/>
      <point x="546" y="824"/>
      <point x="518" y="804" type="curve"/>
      <point x="530" y="787" type="line"/>
      <point x="558" y="803"/>
      <point x="592" y="821"/>
      <point x="635" y="821" type="curve" smooth="yes"/>
      <point x="682" y="821"/>
      <point x="711" y="798"/>
      <point x="711" y="766" type="curve" smooth="yes"/>
      <point x="711" y="732"/>
      <point x="687" y="708"/>
      <point x="670" y="681" type="curve"/>
    </contour>
    <contour>
      <point x="605" y="751" type="move" name="hook"/>
    </contour>
    <contour>
      <point x="1033" y="165" type="move" name="ogonek"/>
    </contour>
    <contour>
      <point x="513" y="686" type="move" name="top"/>
    </contour>
    <contour>
      <point x="515" y="165" type="move" name="bottom"/>
    </contour>
  </outline>
</glyph>
<glyph name="Aogonek.alt" format="1">
  <advance width="1031"/>
  <outline>
    <contour>
      <point x="513" y="531" type="line"/>
      <point x="156" y="12" type="line"/>
      <point x="185" y="12" type="line"/>
      <point x="523" y="502" type="line"/>
      <point x="511" y="502" type="line"/>
      <point x="847" y="12" type="line"/>
      <point x="877" y="12" type="line"/>
      <point x="520" y="531" type="line"/>
    </contour>
    <contour>
      <point x="1031" y="-1" type="line"/>
      <point x="1031" y="22" type="line"/>
      <point x="693" y="22" type="line"/>
      <point x="693" y="-1" type="line"/>
    </contour>
    <contour>
      <point x="337" y="-1" type="line"/>
      <point x="337" y="22" type="line"/>
      <point x="0" y="22" type="line"/>
      <point x="0" y="-1" type="line"/>
    </contour>
    <contour>
      <point x="724" y="205" type="line"/>
      <point x="310" y="205" type="line"/>
      <point x="291" y="183" type="line"/>
      <point x="738" y="183" type="line"/>
    </contour>
    <contour>
      <point x="1024" y="9" type="line"/>
      <point x="961" y="-7"/>
      <point x="924" y="-43"/>
      <point x="924" y="-86" type="curve" smooth="yes"/>
      <point x="924" y="-138"/>
      <point x="980" y="-169"/>
      <point x="1045" y="-169" type="curve" smooth="yes"/>
      <point x="1100" y="-169"/>
      <point x="1140" y="-149"/>
      <point x="1169" y="-131" type="curve"/>
      <point x="1158" y="-111" type="line"/>
      <point x="1132" y="-128"/>
      <point x="1094" y="-146"/>
      <point x="1045" y="-146" type="curve" smooth="yes"/>
      <point x="993" y="-146"/>
      <point x="949" y="-123"/>
      <point x="949" y="-83" type="curve" smooth="yes"/>
      <point x="949" y="-43"/>
      <point x="986" y="-17"/>
      <point x="1033" y="-1" type="curve"/>
    </contour>
    <contour>
      <point x="605" y="751" type="move" name="hook"/>
    </contour>
    <contour>
      <point x="1033" y="165" type="move" name="ogonek"/>
    </contour>
    <contour>
      <point x="513" y="686" type="move" name="top"/>
    </contour>
    <contour>
      <point x="515" y="165" type="move" name="bottom"/>
    </contour>
  </outline>
</glyph>
<glyph name="Ef-cy" format="1">
  <advance width="909"/>
  <outline>
    <contour>
      <point x="686" y="32"/>
      <point x="838" y="100"/>
      <point x="838" y="235" type="curve" smooth="yes"/>
      <point x="838" y="374"/>
      <point x="686" y="443"/>
      <point x="454" y="443" type="curve" smooth="yes"/>
      <point x="223" y="443"/>
      <point x="70" y="374"/>
      <point x="70" y="235" type="curve" smooth="yes"/>
      <point x="70" y="100"/>
      <point x="223" y="32"/>
      <point x="454" y="32" type="curve" smooth="yes"/>
    </contour>
    <contour>
      <point x="660" y="-86" type="line" smooth="yes"/>
      <point x="660" y="-63" type="line" smooth="yes"/>
      <point x="250" y="-63" type="line" smooth="yes"/>
      <point x="250" y="-86" type="line" smooth="yes"/>
    </contour>
    <contour>
      <point x="233" y="54"/>
      <point x="95" y="118"/>
      <point x="95" y="235" type="curve" smooth="yes"/>
      <point x="95" y="357"/>
      <point x="233" y="421"/>
      <point x="454" y="421" type="curve" smooth="yes"/>
      <point x="676" y="421"/>
      <point x="813" y="357"/>
      <point x="813" y="235" type="curve" smooth="yes"/>
      <point x="813" y="118"/>
      <point x="676" y="54"/>
      <point x="454" y="54" type="curve" smooth="yes"/>
    </contour>
    <contour>
      <point x="467" y="-74" type="line" smooth="yes"/>
      <point x="467" y="547" type="line" smooth="yes"/>
      <point x="442" y="547" type="line" smooth="yes"/>
      <point x="442" y="-74" type="line" smooth="yes"/>
    </contour>
    <contour>
      <point x="660" y="537" type="line" smooth="yes"/>
      <point x="660" y="560" type="line" smooth="yes"/>
      <point x="250" y="560" type="line" smooth="yes"/>
      <point x="250" y="537" type="line" smooth="yes"/>
    </contour>
  </outline>
</glyph>
<glyph name="am" format="1">
  <advance width="1047"/>
  <outline>
    <contour>
      <point x="919" y="200"/>
      <point x="910" y="210"/>
      <point x="891" y="208" type="curve" smooth="yes"/>
      <point x="867" y="206"/>
      <point x="826" y="180"/>
      <point x="776" y="145" type="curve"/>
      <point x="784" y="123"/>
      <point x="796" y="104"/>
      <point x="809" y="89" type="curve"/>
      <point x="847" y="116"/>
      <point x="881" y="135"/>
      <point x="898" y="138" type="curve" smooth="yes"/>
      <point x="903" y="138"/>
      <point x="909" y="138"/>
      <point x="914" y="138" type="curve"/>
      <point x="919" y="154"/>
      <point x="922" y="168"/>
      <point x="921" y="181" type="curve" smooth="yes"/>
    </contour>
    <contour>
      <point x="771" y="358"/>
      <point x="768" y="344"/>
      <point x="764" y="329" type="curve"/>
      <point x="764" y="330"/>
      <point x="764" y="330"/>
      <point x="764" y="331" type="curve"/>
      <point x="769" y="334"/>
      <point x="776" y="336"/>
      <point x="781" y="340" type="curve" smooth="yes"/>
      <point x="803" y="351"/>
      <point x="847" y="378"/>
      <point x="847" y="428" type="curve"/>
      <point x="834" y="414"/>
      <point x="786" y="398"/>
      <point x="776" y="372" type="curve" smooth="yes"/>
    </contour>
    <contour>
      <point x="877" y="69"/>
      <point x="899" y="99"/>
      <point x="911" y="130" type="curve"/>
      <point x="891" y="126"/>
      <point x="858" y="106"/>
      <point x="819" y="79" type="curve"/>
      <point x="829" y="71"/>
      <point x="842" y="66"/>
      <point x="854" y="64" type="curve"/>
    </contour>
    <contour>
      <point x="659" y="39"/>
      <point x="686" y="28"/>
      <point x="711" y="17" type="curve"/>
      <point x="736" y="34"/>
      <point x="761" y="54"/>
      <point x="784" y="70" type="curve"/>
      <point x="768" y="84"/>
      <point x="757" y="104"/>
      <point x="747" y="126" type="curve"/>
      <point x="713" y="102"/>
      <point x="676" y="75"/>
      <point x="635" y="50" type="curve"/>
    </contour>
    <contour>
      <point x="822" y="50"/>
      <point x="808" y="55"/>
      <point x="794" y="62" type="curve"/>
      <point x="772" y="46"/>
      <point x="749" y="29"/>
      <point x="724" y="12" type="curve"/>
      <point x="769" y="-7"/>
      <point x="812" y="-18"/>
      <point x="843" y="-16" type="curve" smooth="yes"/>
      <point x="877" y="-11"/>
      <point x="887" y="5"/>
      <point x="885" y="18" type="curve" smooth="yes"/>
      <point x="885" y="25"/>
      <point x="883" y="31"/>
      <point x="883" y="34" type="curve" smooth="yes"/>
      <point x="882" y="43"/>
      <point x="883" y="46"/>
      <point x="883" y="46" type="curve"/>
      <point x="919" y="70" type="line"/>
      <point x="926" y="67"/>
      <point x="929" y="60"/>
      <point x="931" y="48" type="curve" smooth="yes"/>
      <point x="934" y="22"/>
      <point x="910" y="-17"/>
      <point x="833" y="-25" type="curve" smooth="yes"/>
      <point x="802" y="-27"/>
      <point x="758" y="-16"/>
      <point x="711" y="2" type="curve"/>
      <point x="696" y="-10"/>
      <point x="682" y="-20"/>
      <point x="668" y="-28" type="curve"/>
      <point x="753" y="-52"/>
      <point x="834" y="-68"/>
      <point x="881" y="-63" type="curve" smooth="yes"/>
      <point x="947" y="-58"/>
      <point x="968" y="-4"/>
      <point x="963" y="45" type="curve" smooth="yes"/>
      <point x="960" y="71"/>
      <point x="950" y="97"/>
      <point x="937" y="114" type="curve"/>
      <point x="917" y="83"/>
      <point x="881" y="57"/>
      <point x="838" y="53" type="curve" smooth="yes"/>
    </contour>
    <contour>
      <point x="467" y="-7"/>
      <point x="470" y="-15"/>
      <point x="470" y="-20" type="curve"/>
      <point x="488" y="-15"/>
      <point x="506" y="-7"/>
      <point x="523" y="0" type="curve"/>
      <point x="503" y="5"/>
      <point x="485" y="12"/>
      <point x="467" y="17" type="curve"/>
      <point x="467" y="10"/>
      <point x="467" y="5"/>
      <point x="467" y="-1" type="curve" smooth="yes"/>
    </contour>
    <contour>
      <point x="553" y="68"/>
      <point x="510" y="88"/>
      <point x="496" y="88" type="curve"/>
      <point x="481" y="74"/>
      <point x="470" y="54"/>
      <point x="467" y="31" type="curve"/>
      <point x="491" y="24"/>
      <point x="515" y="17"/>
      <point x="540" y="9" type="curve"/>
      <point x="562" y="20"/>
      <point x="585" y="32"/>
      <point x="606" y="45" type="curve"/>
    </contour>
    <contour>
      <point x="574" y="-77"/>
      <point x="605" y="-58"/>
      <point x="641" y="-33" type="curve"/>
      <point x="607" y="-25"/>
      <point x="572" y="-15"/>
      <point x="538" y="-4" type="curve"/>
      <point x="518" y="-15"/>
      <point x="496" y="-25"/>
      <point x="475" y="-32" type="curve"/>
      <point x="487" y="-61"/>
      <point x="513" y="-83"/>
      <point x="556" y="-78" type="curve" smooth="yes"/>
    </contour>
    <contour>
      <point x="670" y="17"/>
      <point x="643" y="29"/>
      <point x="618" y="40" type="curve"/>
      <point x="597" y="27"/>
      <point x="576" y="15"/>
      <point x="555" y="4" type="curve"/>
      <point x="587" y="-6"/>
      <point x="621" y="-16"/>
      <point x="654" y="-25" type="curve"/>
      <point x="668" y="-16"/>
      <point x="682" y="-4"/>
      <point x="697" y="7" type="curve"/>
    </contour>
    <contour>
      <point x="518" y="123"/>
      <point x="546" y="142"/>
      <point x="570" y="171" type="curve"/>
      <point x="560" y="211"/>
      <point x="542" y="246"/>
      <point x="523" y="273" type="curve"/>
      <point x="493" y="215"/>
      <point x="461" y="164"/>
      <point x="426" y="130" type="curve"/>
      <point x="443" y="123"/>
      <point x="463" y="118"/>
      <point x="485" y="120" type="curve" smooth="yes"/>
    </contour>
    <contour>
      <point x="581" y="400"/>
      <point x="561" y="351"/>
      <point x="537" y="304" type="curve"/>
      <point x="550" y="289"/>
      <point x="561" y="273"/>
      <point x="570" y="254" type="curve"/>
      <point x="572" y="318"/>
      <point x="581" y="385"/>
      <point x="600" y="444" type="curve"/>
    </contour>
    <contour>
      <point x="503" y="297"/>
      <point x="496" y="304"/>
      <point x="491" y="309" type="curve"/>
      <point x="468" y="261"/>
      <point x="432" y="223"/>
      <point x="401" y="218" type="curve" smooth="yes"/>
      <point x="382" y="216"/>
      <point x="367" y="235"/>
      <point x="366" y="256" type="curve" smooth="yes"/>
      <point x="365" y="269"/>
      <point x="366" y="281"/>
      <point x="373" y="290" type="curve"/>
      <point x="408" y="310" type="line"/>
      <point x="410" y="311"/>
      <point x="411" y="309"/>
      <point x="412" y="308" type="curve" smooth="yes"/>
      <point x="413" y="297"/>
      <point x="387" y="259"/>
      <point x="390" y="240" type="curve" smooth="yes"/>
      <point x="390" y="233"/>
      <point x="393" y="230"/>
      <point x="404" y="230" type="curve" smooth="yes"/>
      <point x="431" y="233"/>
      <point x="458" y="278"/>
      <point x="473" y="326" type="curve"/>
      <point x="448" y="349"/>
      <point x="427" y="360"/>
      <point x="427" y="360" type="curve"/>
      <point x="377" y="355"/>
      <point x="337" y="301"/>
      <point x="344" y="246" type="curve" smooth="yes"/>
      <point x="348" y="201"/>
      <point x="375" y="159"/>
      <point x="412" y="138" type="curve"/>
      <point x="446" y="173"/>
      <point x="480" y="227"/>
      <point x="510" y="289" type="curve"/>
    </contour>
    <contour>
      <point x="515" y="-162"/>
      <point x="546" y="-150"/>
      <point x="591" y="-123" type="curve"/>
      <point x="692" y="-148"/>
      <point x="758" y="-157"/>
      <point x="806" y="-152" type="curve" smooth="yes"/>
      <point x="906" y="-142"/>
      <point x="961" y="-75"/>
      <point x="973" y="0" type="curve"/>
      <point x="961" y="-36"/>
      <point x="929" y="-67"/>
      <point x="876" y="-73" type="curve" smooth="yes"/>
      <point x="826" y="-77"/>
      <point x="743" y="-61"/>
      <point x="655" y="-37" type="curve"/>
      <point x="616" y="-63"/>
      <point x="580" y="-83"/>
      <point x="557" y="-86" type="curve" smooth="yes"/>
      <point x="507" y="-91"/>
      <point x="475" y="-67"/>
      <point x="458" y="-37" type="curve"/>
      <point x="436" y="-45"/>
      <point x="413" y="-50"/>
      <point x="392" y="-52" type="curve" smooth="yes"/>
      <point x="319" y="-58"/>
      <point x="285" y="-28"/>
      <point x="282" y="4" type="curve" smooth="yes"/>
      <point x="277" y="38"/>
      <point x="297" y="63"/>
      <point x="332" y="67" type="curve" smooth="yes"/>
      <point x="345" y="68"/>
      <point x="391" y="55"/>
      <point x="450" y="37" type="curve"/>
      <point x="457" y="68"/>
      <point x="477" y="93"/>
      <point x="508" y="96" type="curve" smooth="yes"/>
      <point x="527" y="98"/>
      <point x="572" y="79"/>
      <point x="623" y="56" type="curve"/>
      <point x="667" y="82"/>
      <point x="708" y="110"/>
      <point x="744" y="135" type="curve"/>
      <point x="739" y="151"/>
      <point x="736" y="167"/>
      <point x="734" y="184" type="curve" smooth="yes"/>
      <point x="730" y="224"/>
      <point x="728" y="263"/>
      <point x="736" y="308" type="curve"/>
      <point x="717" y="268"/>
      <point x="691" y="171"/>
      <point x="687" y="138" type="curve"/>
      <point x="684" y="132"/>
      <point x="671" y="118"/>
      <point x="661" y="116" type="curve" smooth="yes"/>
      <point x="657" y="116"/>
      <point x="655" y="117"/>
      <point x="655" y="117" type="curve"/>
      <point x="652" y="120"/>
      <point x="651" y="127"/>
      <point x="651" y="135" type="curve" smooth="yes"/>
      <point x="645" y="180"/>
      <point x="649" y="264"/>
      <point x="668" y="326" type="curve"/>
      <point x="647" y="284"/>
      <point x="627" y="238"/>
      <point x="602" y="198" type="curve"/>
      <point x="603" y="171"/>
      <point x="609" y="146"/>
      <point x="616" y="123" type="curve"/>
      <point x="616" y="123"/>
      <point x="603" y="106"/>
      <point x="592" y="105" type="curve" smooth="yes"/>
      <point x="587" y="105"/>
      <point x="585" y="105"/>
      <point x="581" y="106" type="curve"/>
      <point x="578" y="119"/>
      <point x="576" y="134"/>
      <point x="574" y="149" type="curve"/>
      <point x="574" y="152"/>
      <point x="573" y="156"/>
      <point x="573" y="159" type="curve"/>
      <point x="546" y="131"/>
      <point x="516" y="110"/>
      <point x="475" y="107" type="curve" smooth="yes"/>
      <point x="451" y="104"/>
      <point x="428" y="107"/>
      <point x="408" y="115" type="curve"/>
      <point x="391" y="102"/>
      <point x="372" y="94"/>
      <point x="353" y="92" type="curve" smooth="yes"/>
      <point x="281" y="84"/>
      <point x="234" y="143"/>
      <point x="226" y="219" type="curve" smooth="yes"/>
      <point x="215" y="331"/>
      <point x="297" y="468"/>
      <point x="413" y="480" type="curve" smooth="yes"/>
      <point x="462" y="485"/>
      <point x="505" y="458"/>
      <point x="510" y="405" type="curve" smooth="yes"/>
      <point x="511" y="384"/>
      <point x="508" y="361"/>
      <point x="502" y="340" type="curve"/>
      <point x="510" y="333"/>
      <point x="518" y="326"/>
      <point x="525" y="319" type="curve"/>
      <point x="601" y="477"/>
      <point x="663" y="661"/>
      <point x="709" y="667" type="curve" smooth="yes"/>
      <point x="767" y="673" type="line"/>
      <point x="764" y="683"/>
      <point x="762" y="694"/>
      <point x="755" y="702" type="curve" smooth="yes"/>
      <point x="742" y="727"/>
      <point x="713" y="743"/>
      <point x="684" y="740" type="curve" smooth="yes"/>
      <point x="624" y="734" type="line" smooth="yes"/>
      <point x="555" y="726"/>
      <point x="517" y="649"/>
      <point x="454" y="509" type="curve"/>
      <point x="423" y="537"/>
      <point x="378" y="552"/>
      <point x="329" y="547" type="curve" smooth="yes"/>
      <point x="166" y="531"/>
      <point x="61" y="353"/>
      <point x="76" y="205" type="curve" smooth="yes"/>
      <point x="82" y="145"/>
      <point x="106" y="95"/>
      <point x="141" y="60" type="curve"/>
      <point x="132" y="40"/>
      <point x="128" y="15"/>
      <point x="131" y="-10" type="curve" smooth="yes"/>
      <point x="137" y="-77"/>
      <point x="201" y="-143"/>
      <point x="322" y="-131" type="curve" smooth="yes"/>
      <point x="332" y="-130"/>
      <point x="343" y="-128"/>
      <point x="354" y="-127" type="curve"/>
      <point x="388" y="-157"/>
      <point x="435" y="-171"/>
      <point x="486" y="-166" type="curve" smooth="yes"/>
    </contour>
    <contour>
      <point x="302" y="47"/>
      <point x="297" y="27"/>
      <point x="299" y="9" type="curve" smooth="yes"/>
      <point x="301" y="-20"/>
      <point x="323" y="-48"/>
      <point x="385" y="-41" type="curve" smooth="yes"/>
      <point x="407" y="-38"/>
      <point x="431" y="-33"/>
      <point x="454" y="-26" type="curve"/>
      <point x="451" y="-17"/>
      <point x="448" y="-8"/>
      <point x="448" y="0" type="curve" smooth="yes"/>
      <point x="448" y="8"/>
      <point x="446" y="15"/>
      <point x="448" y="23" type="curve"/>
      <point x="382" y="42"/>
      <point x="331" y="56"/>
      <point x="310" y="54" type="curve"/>
    </contour>
    <contour>
      <point x="801" y="293"/>
      <point x="781" y="285"/>
      <point x="758" y="275" type="curve"/>
      <point x="758" y="256"/>
      <point x="758" y="236"/>
      <point x="759" y="218" type="curve" smooth="yes"/>
      <point x="762" y="196"/>
      <point x="766" y="175"/>
      <point x="772" y="155" type="curve"/>
      <point x="828" y="194"/>
      <point x="875" y="224"/>
      <point x="904" y="227" type="curve" smooth="yes"/>
      <point x="928" y="230"/>
      <point x="943" y="224"/>
      <point x="952" y="213" type="curve"/>
      <point x="935" y="268"/>
      <point x="885" y="300"/>
      <point x="821" y="294" type="curve" smooth="yes"/>
    </contour>
    <contour>
      <point x="427" y="375"/>
      <point x="454" y="368"/>
      <point x="481" y="354" type="curve"/>
      <point x="485" y="375"/>
      <point x="486" y="395"/>
      <point x="485" y="414" type="curve" smooth="yes"/>
      <point x="481" y="449"/>
      <point x="461" y="474"/>
      <point x="423" y="470" type="curve" smooth="yes"/>
      <point x="336" y="461"/>
      <point x="247" y="335"/>
      <point x="258" y="227" type="curve" smooth="yes"/>
      <point x="265" y="159"/>
      <point x="312" y="105"/>
      <point x="385" y="113" type="curve"/>
      <point x="388" y="114"/>
      <point x="391" y="117"/>
      <point x="395" y="120" type="curve"/>
      <point x="347" y="144"/>
      <point x="316" y="193"/>
      <point x="311" y="243" type="curve" smooth="yes"/>
      <point x="306" y="301"/>
      <point x="335" y="365"/>
      <point x="400" y="372" type="curve" smooth="yes"/>
    </contour>
    <contour>
      <point x="688" y="395"/>
      <point x="673" y="221"/>
      <point x="678" y="169" type="curve"/>
      <point x="720" y="329"/>
      <point x="774" y="427"/>
      <point x="804" y="441" type="curve"/>
      <point x="846" y="446" type="line"/>
      <point x="844" y="452"/>
      <point x="842" y="460"/>
      <point x="838" y="470" type="curve" smooth="yes"/>
      <point x="833" y="484"/>
      <point x="822" y="500"/>
      <point x="808" y="503" type="curve" smooth="yes"/>
      <point x="796" y="506"/>
      <point x="774" y="502"/>
      <point x="744" y="465" type="curve" smooth="yes"/>
    </contour>
    <contour>
      <point x="632" y="547"/>
      <point x="586" y="376"/>
      <point x="600" y="214" type="curve"/>
      <point x="645" y="290"/>
      <point x="679" y="394"/>
      <point x="722" y="469" type="curve" smooth="yes"/>
      <point x="741" y="500"/>
      <point x="753" y="519"/>
      <point x="764" y="527" type="curve"/>
      <point x="808" y="531" type="line"/>
      <point x="803" y="552"/>
      <point x="793" y="570"/>
      <point x="778" y="582" type="curve" smooth="yes"/>
      <point x="768" y="591"/>
      <point x="758" y="595"/>
      <point x="746" y="599" type="curve"/>
      <point x="758" y="612"/>
      <point x="768" y="631"/>
      <point x="768" y="654" type="curve"/>
      <point x="757" y="639"/>
      <point x="722" y="627"/>
      <point x="704" y="611" type="curve" smooth="yes"/>
    </contour>
  </outline>
</glyph>
<glyph name="dieresiscomb" format="1">
  <advance width="483"/>
  <outline>
    <contour>
      <point x="382" y="635"/>
      <point x="397" y="648"/>
      <point x="397" y="664" type="curve"/>
      <point x="397" y="681"/>
      <point x="382" y="693"/>
      <point x="353" y="693" type="curve"/>
      <point x="325" y="693"/>
      <point x="308" y="681"/>
      <point x="308" y="664" type="curve"/>
      <point x="308" y="648"/>
      <point x="325" y="635"/>
      <point x="353" y="635" type="curve"/>
    </contour>
    <contour>
      <point x="160" y="635"/>
      <point x="176" y="648"/>
      <point x="176" y="664" type="curve"/>
      <point x="176" y="681"/>
      <point x="160" y="693"/>
      <point x="131" y="693" type="curve"/>
      <point x="102" y="693"/>
      <point x="86" y="681"/>
      <point x="86" y="664" type="curve"/>
      <point x="86" y="648"/>
      <point x="102" y="635"/>
      <point x="131" y="635" type="curve"/>
    </contour>
    <contour>
      <point x="245" y="686" type="move" name="_top"/>
    </contour>
  </outline>
</glyph>
<glyph name="doubledanda" format="1">
  <advance width="621"/>
  <outline>
    <contour>
      <point x="280" y="578" type="line"/>
      <point x="280" y="-121" type="line"/>
      <point x="305" y="-121" type="line"/>
      <point x="305" y="578" type="line"/>
    </contour>
    <contour>
      <point x="490" y="578" type="line"/>
      <point x="490" y="-121" type="line"/>
      <point x="515" y="-121" type="line"/>
      <point x="515" y="578" type="line"/>
    </contour>
  </outline>
</glyph>
<glyph name="doubleprimemod" format="1">
  <advance width="507"/>
  <outline>
    <contour>
      <point x="120" y="328" type="line"/>
      <point x="135" y="324" type="line"/>
      <point x="220" y="549" type="line"/>
      <point x="191" y="556" type="line"/>
    </contour>
    <contour>
      <point x="301" y="328" type="line"/>
      <point x="315" y="324" type="line"/>
      <point x="401" y="549" type="line"/>
      <point x="371" y="556" type="line"/>
    </contour>
  </outline>
</glyph>
<glyph name="fi" format="1">
  <advance width="1027"/>
  <outline>
    <contour>
      <point x="236" y="-1" type="line"/>
      <point x="236" y="389" type="line"/>
      <point x="236" y="485"/>
      <point x="277" y="532"/>
      <point x="375" y="532" type="curve" smooth="yes"/>
      <point x="432" y="532"/>
      <point x="498" y="517"/>
      <point x="548" y="497" type="curve"/>
      <point x="556" y="520" type="line"/>
      <point x="506" y="536"/>
      <point x="441" y="556"/>
      <point x="376" y="556" type="curve" smooth="yes"/>
      <point x="261" y="556"/>
      <point x="211" y="494"/>
      <point x="211" y="385" type="curve"/>
      <point x="211" y="-1" type="line"/>
    </contour>
    <contour>
      <point x="443" y="-1" type="line"/>
      <point x="443" y="22" type="line"/>
      <point x="50" y="22" type="line"/>
      <point x="50" y="-1" type="line"/>
    </contour>
    <contour>
      <point x="461" y="333" type="line"/>
      <point x="461" y="357" type="line"/>
      <point x="50" y="357" type="line"/>
      <point x="50" y="333" type="line"/>
    </contour>
    <contour>
      <point x="814" y="-1" type="line"/>
      <point x="814" y="357" type="line"/>
      <point x="789" y="357" type="line"/>
      <point x="789" y="-1" type="line"/>
    </contour>
    <contour>
      <point x="997" y="-1" type="line"/>
      <point x="997" y="22" type="line"/>
      <point x="606" y="22" type="line"/>
      <point x="606" y="-1" type="line"/>
    </contour>
    <contour>
      <point x="814" y="333" type="line"/>
      <point x="814" y="357" type="line"/>
      <point x="606" y="357" type="line"/>
      <point x="606" y="333" type="line"/>
    </contour>
    <contour>
      <point x="822" y="469"/>
      <point x="838" y="482"/>
      <point x="838" y="499" type="curve"/>
      <point x="838" y="517"/>
      <point x="822" y="531"/>
      <point x="791" y="531" type="curve"/>
      <point x="762" y="531"/>
      <point x="743" y="517"/>
      <point x="743" y="499" type="curve"/>
      <point x="743" y="482"/>
      <point x="762" y="469"/>
      <point x="791" y="469" type="curve"/>
    </contour>
    <contour>
      <point x="967" y="175" type="move" name="ogonek"/>
    </contour>
    <contour>
      <point x="774" y="165" type="move" name="bottom"/>
    </contour>
    <contour>
      <point x="784" y="523" type="move" name="top"/>
    </contour>
  </outline>
</glyph>
<glyph name="idotaccent" format="1">
  <advance width="470"/>
  <outline>
    <contour>
      <point x="258" y="-1" type="line"/>
      <point x="258" y="357" type="line"/>
      <point x="233" y="357" type="line"/>
      <point x="233" y="-1" type="line"/>
    </contour>
    <contour>
      <point x="441" y="-1" type="line"/>
      <point x="441" y="22" type="line"/>
      <point x="50" y="22" type="line"/>
      <point x="50" y="-1" type="line"/>
    </contour>
    <contour>
      <point x="258" y="334" type="line"/>
      <point x="258" y="357" type="line"/>
      <point x="50" y="357" type="line"/>
      <point x="50" y="334" type="line"/>
    </contour>
    <contour>
      <point x="264" y="471"/>
      <point x="280" y="484"/>
      <point x="280" y="501" type="curve"/>
      <point x="280" y="518"/>
      <point x="264" y="531"/>
      <point x="233" y="531" type="curve"/>
      <point x="203" y="531"/>
      <point x="186" y="518"/>
      <point x="186" y="501" type="curve"/>
      <point x="186" y="484"/>
      <point x="203" y="471"/>
      <point x="233" y="471" type="curve"/>
    </contour>
    <contour>
      <point x="441" y="165" type="move" name="ogonek"/>
    </contour>
    <contour>
      <point x="245" y="165" type="move" name="bottom"/>
    </contour>
    <contour>
      <point x="233" y="523" type="move" name="top"/>
    </contour>
  </outline>
</glyph>
<glyph name="ogonekcomb" format="1">
  <advance width="385"/>
  <outline>
    <contour>
      <point x="170" y="9" type="line"/>
      <point x="107" y="-7"/>
      <point x="70" y="-43"/>
      <point x="70" y="-86" type="curve" smooth="yes"/>
      <point x="70" y="-138"/>
      <point x="125" y="-169"/>
      <point x="191" y="-169" type="curve" smooth="yes"/>
      <point x="245" y="-169"/>
      <point x="286" y="-149"/>
      <point x="315" y="-131" type="curve"/>
      <point x="304" y="-111" type="line"/>
      <point x="277" y="-128"/>
      <point x="239" y="-146"/>
      <point x="191" y="-146" type="curve" smooth="yes"/>
      <point x="139" y="-146"/>
      <point x="95" y="-123"/>
      <point x="95" y="-83" type="curve" smooth="yes"/>
      <point x="95" y="-43"/>
      <point x="131" y="-17"/>
      <point x="179" y="-1" type="curve"/>
    </contour>
    <contour>
      <point x="179" y="165" type="move" name="_ogonek"/>
    </contour>
  </outline>
</glyph>
<glyph name="twosuperior" format="1">
  <advance width="440"/>
  <outline>
    <contour>
      <point x="364" y="340" type="line"/>
      <point x="60" y="340" type="line"/>
      <point x="60" y="385"/>
      <point x="111" y="411"/>
      <point x="211" y="428" type="curve" smooth="yes"/>
      <point x="312" y="446"/>
      <point x="375" y="465"/>
      <point x="375" y="521" type="curve" smooth="yes"/>
      <point x="375" y="574"/>
      <point x="315" y="601"/>
      <point x="230" y="601" type="curve" smooth="yes"/>
      <point x="157" y="601"/>
      <point x="91" y="577"/>
      <point x="43" y="543" type="curve"/>
      <point x="55" y="525" type="line"/>
      <point x="93" y="553"/>
      <point x="168" y="581"/>
      <point x="230" y="581" type="curve" smooth="yes"/>
      <point x="302" y="581"/>
      <point x="352" y="560"/>
      <point x="353" y="521" type="curve" smooth="yes"/>
      <point x="353" y="481"/>
      <point x="303" y="467"/>
      <point x="204" y="449" type="curve" smooth="yes"/>
      <point x="91" y="427"/>
      <point x="37" y="397"/>
      <point x="37" y="337" type="curve" smooth="yes"/>
      <point x="37" y="318" type="line"/>
      <point x="386" y="318" type="line"/>
      <point x="386" y="426" type="line"/>
      <point x="364" y="426" type="line"/>
    </contour>
  </outline>
</glyph>
